<?xml version="1.0" encoding="UTF-8"?>
<svg version="1.1" xmlns="http://www.w3.org/2000/svg" width="1024" height="1024">
<path d="M0 0 C337.92 0 675.84 0 1024 0 C1024 337.92 1024 675.84 1024 1024 C686.08 1024 348.16 1024 0 1024 C0 686.08 0 348.16 0 0 Z " fill="#15181E" transform="translate(0,0)"/>
<path d="M0 0 C0.9923465 -0.00163147 1.98469299 -0.00326294 3.0071106 -0.00494385 C35.47043653 0.00109278 35.47043653 0.00109278 50.1328125 4.546875 C53.37130097 5.52488006 56.63966401 6.24581713 59.9375 7 C91.77358526 14.77410886 122.22826879 28.90164376 147.875 49.375 C149.27298828 50.48488281 149.27298828 50.48488281 150.69921875 51.6171875 C165.40017323 63.46816614 179.37071046 76.35104145 190.875 91.375 C191.29458984 91.91817871 191.71417969 92.46135742 192.14648438 93.02099609 C208.79756119 114.68562705 225.79757425 141.56507218 231.20703125 168.734375 C231.83173417 171.52194453 231.83173417 171.52194453 233.29296875 174.546875 C248.97734173 209.96721777 247.79935171 265.81807315 235.875 302.375 C235.56788086 303.35742676 235.26076172 304.33985352 234.94433594 305.35205078 C230.43317495 319.75533277 225.55368134 333.82708129 218.875 347.375 C218.50294434 348.13683594 218.13088867 348.89867187 217.74755859 349.68359375 C206.4072583 372.67566325 191.59477688 392.92549193 173.875 411.375 C173.30797363 411.9745752 172.74094727 412.57415039 172.15673828 413.19189453 C147.63615297 439.04592557 116.69803579 457.95388501 83.3125 470.0625 C82.29615479 470.43117188 81.27980957 470.79984375 80.23266602 471.1796875 C67.72819181 475.61717887 55.28067667 478.90458906 42.1875 481.0625 C40.95966797 481.27455078 39.73183594 481.48660156 38.46679688 481.70507812 C25.23937354 483.93901163 12.26843617 484.64714786 -1.125 484.6875 C-1.95937592 484.69011841 -2.79375183 484.69273682 -3.65341187 484.69543457 C-18.79195974 484.70049491 -33.25135775 483.34654465 -48.125 480.375 C-49.30980957 480.15070313 -49.30980957 480.15070313 -50.51855469 479.921875 C-88.45890191 472.6211044 -124.18864911 454.46288914 -154.125 430.375 C-154.64239746 429.9620166 -155.15979492 429.5490332 -155.69287109 429.12353516 C-169.57877594 417.96900033 -182.24831339 405.45101195 -192.83496094 391.109375 C-194.13958755 389.35538797 -195.47620384 387.63011043 -196.8203125 385.90625 C-204.68092598 375.69137857 -211.04401193 364.72275726 -217.125 353.375 C-217.4972168 352.68809082 -217.86943359 352.00118164 -218.25292969 351.29345703 C-228.41155263 332.2351027 -235.81814235 309.83474891 -239.5390625 288.6015625 C-239.94716145 285.49717331 -239.94716145 285.49717331 -241.125 283.375 C-243.3847912 269.98748115 -243.52504082 256.54324063 -243.5 243 C-243.49978851 241.9428479 -243.49957703 240.8856958 -243.49935913 239.79650879 C-243.46649978 223.31824268 -242.61579022 207.53045865 -239.125 191.375 C-238.95371582 190.51310059 -238.78243164 189.65120117 -238.60595703 188.76318359 C-231.62277347 153.96801246 -214.24809527 120.8600654 -192.46826172 93.09277344 C-191.30749767 91.60837943 -190.16915859 90.10650019 -189.03515625 88.6015625 C-178.59671361 75.16594326 -165.7818219 62.52111802 -152.125 52.375 C-151.49867676 51.89933594 -150.87235352 51.42367187 -150.22705078 50.93359375 C-139.04022879 42.45691411 -127.46887224 35.05041144 -115.125 28.375 C-114.44228027 28.00536133 -113.75956055 27.63572266 -113.05615234 27.25488281 C-98.73379439 19.59794348 -83.61873118 13.21353182 -67.875 9.1640625 C-65.2092257 8.49808515 -65.2092257 8.49808515 -63.25 7.3984375 C-45.05992423 -1.36222399 -19.67070313 -0.01512997 0 0 Z " fill="#181B22" transform="translate(508.125,185.625)"/>
<path d="M0 0 C7.91351186 3.30513399 13.57207966 8.56043784 17.30078125 16.2734375 C18.11328125 19.7734375 18.11328125 19.7734375 18.30078125 22.2734375 C19.20957031 22.29470703 19.20957031 22.29470703 20.13671875 22.31640625 C28.95380445 22.8183019 36.05925264 25.48957645 42.17578125 32.0234375 C47.27880002 38.48645891 49.38851138 43.75884489 49.42578125 52.0234375 C49.45952868 55.33554911 49.45952868 55.33554911 50.30078125 58.2734375 C53.31231161 60.80357081 56.65636265 61.89185603 60.30078125 63.2734375 C65.92015021 67.6440578 69.54179587 74.01097561 70.7890625 81.015625 C71.13837108 88.06167806 69.0989487 93.39203275 65.30078125 99.2734375 C64.64078125 99.9334375 63.98078125 100.5934375 63.30078125 101.2734375 C61.19023676 100.96254817 59.40788689 100.31668308 57.43359375 99.51953125 C49.92988846 96.49761103 41.40364165 95.67137668 33.61328125 98.1171875 C28.21736671 100.81514477 23.98084473 104.82543961 21.30078125 110.2734375 C21.24034474 113.17848447 21.24034474 113.17848447 22.30078125 115.2734375 C23.29078125 115.2734375 24.28078125 115.2734375 25.30078125 115.2734375 C26.64479055 113.28059612 27.97619417 111.27924079 29.30078125 109.2734375 C35.09505706 103.64301011 39.02179962 102.91718934 46.96484375 102.99609375 C53.19917393 103.51440457 56.7529869 105.72564315 61.11328125 110.0859375 C62.83644599 112.5968347 63.77710851 114.32598007 64.80078125 117.0859375 C65.29578125 118.1378125 65.79078125 119.1896875 66.30078125 120.2734375 C68.87811039 121.32511277 68.87811039 121.32511277 71.30078125 121.2734375 C70.23259655 116.15978736 69.06970649 111.20115781 67.30078125 106.2734375 C73.24249964 107.57771715 76.68172916 110.55903066 80.30078125 115.2734375 C84.58529967 122.43524248 85.55697924 130.07916138 84.30078125 138.2734375 C81.75636115 145.99955983 78.13032594 150.74545109 71.8125 155.69140625 C69.89570819 157.34602454 69.89570819 157.34602454 70.17578125 160.8984375 C71.18253282 164.12901965 71.18253282 164.12901965 72.34765625 166.53125 C74.69639056 173.28867412 74.44791407 182.59247039 71.67578125 189.2109375 C70.92901803 190.59037512 70.13682888 191.94621189 69.30078125 193.2734375 C68.88828125 193.96953125 68.47578125 194.665625 68.05078125 195.3828125 C63.36660568 202.46230512 55.61944822 207.50350836 47.30078125 209.2734375 C39.63252428 210.0783118 32.22428384 208.77094701 25.98828125 204.0234375 C21.65149786 199.58579868 19.09432934 195.99005937 18.92578125 189.6484375 C19.08063592 186.1403836 19.8342814 183.48140592 21.30078125 180.2734375 C21.30078125 178.9534375 21.30078125 177.6334375 21.30078125 176.2734375 C18.84853431 176.37957586 18.84853431 176.37957586 16.30078125 177.2734375 C12.8730688 183.73110737 13.2073305 192.66972684 15.23828125 199.5859375 C17.85881956 205.39295197 23.16415219 209.8588793 28.890625 212.44140625 C31.01726358 213.15700502 33.11359402 213.77705458 35.30078125 214.2734375 C34.37848432 225.11042637 28.97624067 234.08706168 21.11328125 241.4609375 C11.63109026 248.95227887 2.1335158 250.5913328 -9.66259766 249.56884766 C-14.31054522 248.89466682 -17.9299265 246.97538561 -21.69921875 244.2734375 C-22.27800781 243.88929688 -22.85679687 243.50515625 -23.453125 243.109375 C-29.66716108 238.53061157 -33.19978502 231.71725943 -34.69921875 224.2734375 C-34.9682162 220.91536951 -34.95260888 217.57456215 -34.92626953 214.20727539 C-34.92656158 213.22114258 -34.92685364 212.23500977 -34.92715454 211.21899414 C-34.92576753 207.97793607 -34.91023584 204.73711139 -34.89453125 201.49609375 C-34.89079889 199.24165472 -34.88795297 196.98721406 -34.88595581 194.73277283 C-34.87833694 188.8128101 -34.8587034 182.89294625 -34.83654785 176.97302246 C-34.81605181 170.92669004 -34.80694606 164.88034156 -34.796875 158.83398438 C-34.7754559 146.98042542 -34.74134102 135.1269397 -34.69921875 123.2734375 C-34.06830322 123.24838135 -33.4373877 123.2233252 -32.78735352 123.19750977 C-29.9452505 123.08189613 -27.10350792 122.95901434 -24.26171875 122.8359375 C-23.26849609 122.79662109 -22.27527344 122.75730469 -21.25195312 122.71679688 C-20.30771484 122.67490234 -19.36347656 122.63300781 -18.390625 122.58984375 C-17.51607666 122.55318604 -16.64152832 122.51652832 -15.74047852 122.47875977 C-13.70647855 122.49162684 -13.70647855 122.49162684 -12.69921875 121.2734375 C-12.62629009 119.28244735 -12.6149023 117.28915115 -12.62890625 115.296875 C-12.61859375 114.06839844 -12.60828125 112.83992188 -12.59765625 111.57421875 C-12.58217138 108.98050321 -12.58956098 106.38653883 -12.62109375 103.79296875 C-12.46635938 93.19366451 -12.46635938 93.19366451 -8.26953125 88.875 C-5.17458287 86.2734375 -5.17458287 86.2734375 -2.69921875 86.2734375 C-2.41046875 85.6546875 -2.12171875 85.0359375 -1.82421875 84.3984375 C-0.69921875 82.2734375 -0.69921875 82.2734375 1.30078125 80.2734375 C1.58974855 77.81602612 1.58974855 77.81602612 1.5390625 74.96875 C1.55517578 73.91042969 1.57128906 72.85210937 1.58789062 71.76171875 C1.60475829 69.52740135 1.61004888 67.29296527 1.60351562 65.05859375 C1.75812332 56.84942403 1.75812332 56.84942403 4.78125 53.640625 C5.61269531 53.18945312 6.44414063 52.73828125 7.30078125 52.2734375 C9.04679357 48.78141285 8.85916929 45.08361471 8.30078125 41.2734375 C6.55078125 38.0234375 6.55078125 38.0234375 3.30078125 36.2734375 C-1.37641714 35.32615681 -4.63381032 35.60755723 -8.69921875 38.1484375 C-10.73546718 40.31195145 -11.65542229 41.30420281 -11.7890625 44.26171875 C-11.71365234 45.41220703 -11.71365234 45.41220703 -11.63671875 46.5859375 C-11.58837891 47.72482422 -11.58837891 47.72482422 -11.5390625 48.88671875 C-10.83903771 51.60500524 -10.83903771 51.60500524 -7.71484375 53.41015625 C-4.76326486 55.69737556 -4.14144533 57.43406663 -3.65625 61.1171875 C-3.55727128 63.0006206 -3.51156005 64.88740542 -3.51171875 66.7734375 C-3.50599854 67.76956055 -3.50027832 68.76568359 -3.49438477 69.79199219 C-3.71263196 74.65442886 -3.98229618 78.21226609 -7.58203125 81.6953125 C-9.33846036 83.16189121 -11.14859542 84.53240338 -12.97460938 85.91088867 C-17.1648456 89.51006029 -18.19864709 92.32958246 -18.78515625 97.83984375 C-19.12035869 104.3324639 -18.99497269 110.78139603 -18.69921875 117.2734375 C-23.97921875 117.2734375 -29.25921875 117.2734375 -34.69921875 117.2734375 C-34.81524441 104.39059032 -34.90400144 91.50786816 -34.95827961 78.62460423 C-34.98433501 72.64188193 -35.01965978 66.65951802 -35.07641602 60.67700195 C-35.13087921 54.89981009 -35.1606698 49.12296222 -35.17360497 43.34553337 C-35.18281907 41.14516729 -35.20081218 38.94481931 -35.22786903 36.7446003 C-35.26434865 33.654276 -35.26915608 30.56535966 -35.2668457 27.47485352 C-35.28482208 26.57213715 -35.30279846 25.66942078 -35.32131958 24.73934937 C-35.26256867 17.44145351 -33.01306779 11.72411154 -27.91432667 6.41484928 C-19.87318627 -0.96359778 -10.60285983 -2.85402594 0 0 Z " fill="#4DA9E3" transform="translate(551.69921875,333.7265625)"/>
<path d="M0 0 C4.90432412 3.81345576 8.22398878 8.72133573 10.08984375 14.625 C10.37503654 17.87482369 10.34245779 21.11192449 10.31689453 24.37231445 C10.31718658 25.34840164 10.31747864 26.32448883 10.31777954 27.33015442 C10.31638857 30.54962112 10.30083813 33.76885508 10.28515625 36.98828125 C10.2814253 39.2231585 10.27857871 41.4580374 10.27658081 43.69291687 C10.26895085 49.5701653 10.24930773 55.44731461 10.22717285 61.32452393 C10.20670076 67.32375752 10.19757617 73.32300716 10.1875 79.32226562 C10.16606132 91.08988726 10.13193297 102.85743538 10.08984375 114.625 C4.80984375 114.625 -0.47015625 114.625 -5.91015625 114.625 C-5.92433594 112.80613281 -5.93851562 110.98726563 -5.953125 109.11328125 C-6.00002603 106.72132881 -6.0482734 104.32940249 -6.09765625 101.9375 C-6.10345703 100.73931641 -6.10925781 99.54113281 -6.11523438 98.30664062 C-6.17220127 91.43834064 -6.17220127 91.43834064 -9.19140625 85.48046875 C-10.83948414 84.35570295 -12.49091492 83.23580048 -14.1484375 82.125 C-17.53588128 79.67532314 -19.56299441 77.49254472 -20.34765625 73.27148438 C-20.6085879 70.46035356 -20.70615983 67.69803977 -20.72265625 64.875 C-20.73401611 63.93914062 -20.74537598 63.00328125 -20.75708008 62.0390625 C-20.56457697 55.29598833 -20.56457697 55.29598833 -17.44140625 52.09375 C-16.1884375 51.36671875 -16.1884375 51.36671875 -14.91015625 50.625 C-12.63348614 47.58943985 -12.41330864 44.35860372 -12.546875 40.59765625 C-12.83976359 38.32861698 -12.83976359 38.32861698 -14.78515625 35.625 C-18.57996439 33.19632279 -21.08095689 32.83921466 -25.52734375 33.078125 C-28.12688984 33.67474214 -29.22255768 34.26096666 -31.03515625 36.1875 C-33.19687368 40.15064861 -33.55678354 42.17943735 -32.91015625 46.625 C-31.18361079 50.50972728 -29.69838854 51.89524931 -25.91015625 53.625 C-25.94794189 54.31424561 -25.98572754 55.00349121 -26.0246582 55.71362305 C-27.13179453 68.65828167 -27.13179453 68.65828167 -23.60302734 80.64990234 C-21.95330922 82.26080358 -20.27134917 83.63996441 -18.41015625 85 C-14.56275327 87.82895768 -12.27356812 89.97940962 -11.21679688 94.76464844 C-10.51467244 101.91972313 -10.59214315 109.06270354 -10.90917969 116.23925781 C-10.90966309 117.4202002 -10.90966309 117.4202002 -10.91015625 118.625 C-9.32612101 120.20903524 -7.63299245 119.84474935 -5.4375 119.94140625 C-4.53837891 119.98330078 -3.63925781 120.02519531 -2.71289062 120.06835938 C-1.76736328 120.10767578 -0.82183594 120.14699219 0.15234375 120.1875 C1.57643555 120.25227539 1.57643555 120.25227539 3.02929688 120.31835938 C5.38265728 120.42479276 7.73612729 120.52681008 10.08984375 120.625 C10.2059024 134.0121153 10.29464318 147.3991101 10.34890461 160.78662682 C10.3749528 167.00360309 10.41026446 173.22023411 10.46704102 179.43701172 C10.52152982 185.44114176 10.55130021 191.44494056 10.56422997 197.44929886 C10.57343948 199.73536007 10.5914235 202.02140398 10.61849403 204.30732346 C10.65500745 207.51956532 10.65977964 210.73045374 10.6574707 213.94287109 C10.67544708 214.87939514 10.69342346 215.81591919 10.71194458 216.78082275 C10.65023684 224.76051501 8.0191577 231.02721552 2.984375 237.2109375 C-2.28051007 241.73498508 -7.2994953 244.51292962 -13.91015625 246.625 C-14.90015625 246.955 -15.89015625 247.285 -16.91015625 247.625 C-27.17618481 248.85762779 -35.80903881 245.68981669 -44.22265625 239.875 C-52.36292723 233.20403104 -57.20915741 224.78188105 -59.91015625 214.625 C-59.58015625 213.635 -59.25015625 212.645 -58.91015625 211.625 C-56.87109375 210.703125 -56.87109375 210.703125 -54.28515625 209.875 C-47.2267948 207.20290602 -42.91564729 203.08103482 -39.47265625 196.375 C-36.92069225 189.94009077 -36.9578048 183.53217812 -39.09765625 177 C-40.72246394 174.40468441 -40.72246394 174.40468441 -43.59765625 173.75 C-44.36078125 173.70875 -45.12390625 173.6675 -45.91015625 173.625 C-45.25430436 177.23492379 -45.25430436 177.23492379 -43.91015625 180.625 C-43.18413759 187.80187302 -43.50580745 192.82980421 -47.91015625 198.625 C-53.40422284 204.11906659 -59.0709857 206.69976471 -66.78515625 207.0625 C-76.32161588 206.68337469 -82.99036915 202.4745695 -89.77734375 195.99609375 C-92.6698503 192.78043171 -94.4216958 189.65768936 -95.91015625 185.625 C-96.32265625 184.696875 -96.73515625 183.76875 -97.16015625 182.8125 C-99.11773247 174.49280109 -98.07655702 167.77201347 -94.58984375 160.03515625 C-93.67187831 157.646033 -93.67187831 157.646033 -94.65234375 155.41015625 C-95.88153367 153.45995851 -95.88153367 153.45995851 -98.16015625 152 C-105.0044312 146.08903527 -108.50620552 137.63398909 -109.22265625 128.75 C-108.94756186 120.36771197 -105.42597494 113.77993119 -99.91015625 107.625 C-95.61015625 103.625 -95.61015625 103.625 -91.91015625 103.625 C-92.37458893 105.79235253 -92.8456569 107.5149717 -93.97265625 109.4375 C-95.29513484 112.52328337 -95.03766474 115.30977932 -94.91015625 118.625 C-93.59015625 118.625 -92.27015625 118.625 -90.91015625 118.625 C-90.6678125 118.03332031 -90.42546875 117.44164062 -90.17578125 116.83203125 C-87.43038018 110.35922027 -84.73421723 104.80442627 -78.23046875 101.35546875 C-72.40020444 99.52001517 -65.42010806 99.52001517 -59.58984375 101.35546875 C-55.18572216 103.69098777 -52.11797874 107.20935502 -49.91015625 111.625 C-48.59015625 111.625 -47.27015625 111.625 -45.91015625 111.625 C-46.15938024 107.38819223 -46.45090645 105.1711349 -49.22265625 101.875 C-50.10953125 101.1325 -50.99640625 100.39 -51.91015625 99.625 C-52.57015625 99.068125 -53.23015625 98.51125 -53.91015625 97.9375 C-60.64466102 93.51798124 -68.16748396 93.92258865 -75.91015625 94.625 C-78.52214685 95.48368742 -80.71222895 96.46171714 -83.078125 97.84765625 C-84.91015625 98.625 -84.91015625 98.625 -86.9765625 98.5078125 C-90.42713911 96.93239772 -91.38760087 94.03100844 -92.9140625 90.70703125 C-95.0519627 84.09211651 -95.26077504 77.27903774 -92.8359375 70.71875 C-88.9769715 63.69860364 -83.84198001 58.83605082 -76.15625 56.46875 C-75.08503906 56.1903125 -74.01382813 55.911875 -72.91015625 55.625 C-72.96816406 54.65820312 -73.02617187 53.69140625 -73.0859375 52.6953125 C-73.41851586 43.09805123 -72.68095108 35.98578652 -66.078125 28.56640625 C-61.22319796 23.96044982 -56.16036183 21.22030567 -49.51171875 20.2890625 C-47.13045303 19.94227623 -45.11465614 19.59717076 -42.91015625 18.625 C-41.43102906 15.39758448 -41.43102906 15.39758448 -40.828125 12.984375 C-38.47963821 6.94826427 -32.7631196 1.38027498 -27.28515625 -2 C-18.72149957 -5.57960849 -7.91246642 -4.63425654 0 0 Z " fill="#678BE7" transform="translate(496.91015625,336.375)"/>
<path d="M0 0 C0.9923465 -0.00163147 1.98469299 -0.00326294 3.0071106 -0.00494385 C35.47043653 0.00109278 35.47043653 0.00109278 50.1328125 4.546875 C53.37130097 5.52488006 56.63966401 6.24581713 59.9375 7 C91.77358526 14.77410886 122.22826879 28.90164376 147.875 49.375 C149.27298828 50.48488281 149.27298828 50.48488281 150.69921875 51.6171875 C165.40017323 63.46816614 179.37071046 76.35104145 190.875 91.375 C191.29458984 91.91817871 191.71417969 92.46135742 192.14648438 93.02099609 C208.79756119 114.68562705 225.79757425 141.56507218 231.20703125 168.734375 C231.83173417 171.52194453 231.83173417 171.52194453 233.29296875 174.546875 C248.97734173 209.96721777 247.79935171 265.81807315 235.875 302.375 C235.56788086 303.35742676 235.26076172 304.33985352 234.94433594 305.35205078 C230.43317495 319.75533277 225.55368134 333.82708129 218.875 347.375 C218.50294434 348.13683594 218.13088867 348.89867187 217.74755859 349.68359375 C206.4072583 372.67566325 191.59477688 392.92549193 173.875 411.375 C173.30797363 411.9745752 172.74094727 412.57415039 172.15673828 413.19189453 C147.63615297 439.04592557 116.69803579 457.95388501 83.3125 470.0625 C82.29615479 470.43117188 81.27980957 470.79984375 80.23266602 471.1796875 C67.72819181 475.61717887 55.28067667 478.90458906 42.1875 481.0625 C40.95966797 481.27455078 39.73183594 481.48660156 38.46679688 481.70507812 C25.23937354 483.93901163 12.26843617 484.64714786 -1.125 484.6875 C-1.95937592 484.69011841 -2.79375183 484.69273682 -3.65341187 484.69543457 C-18.79195974 484.70049491 -33.25135775 483.34654465 -48.125 480.375 C-49.30980957 480.15070313 -49.30980957 480.15070313 -50.51855469 479.921875 C-88.45890191 472.6211044 -124.18864911 454.46288914 -154.125 430.375 C-154.64239746 429.9620166 -155.15979492 429.5490332 -155.69287109 429.12353516 C-169.57877594 417.96900033 -182.24831339 405.45101195 -192.83496094 391.109375 C-194.13958755 389.35538797 -195.47620384 387.63011043 -196.8203125 385.90625 C-204.68092598 375.69137857 -211.04401193 364.72275726 -217.125 353.375 C-217.4972168 352.68809082 -217.86943359 352.00118164 -218.25292969 351.29345703 C-228.41155263 332.2351027 -235.81814235 309.83474891 -239.5390625 288.6015625 C-239.94716145 285.49717331 -239.94716145 285.49717331 -241.125 283.375 C-243.3847912 269.98748115 -243.52504082 256.54324063 -243.5 243 C-243.49978851 241.9428479 -243.49957703 240.8856958 -243.49935913 239.79650879 C-243.46649978 223.31824268 -242.61579022 207.53045865 -239.125 191.375 C-238.95371582 190.51310059 -238.78243164 189.65120117 -238.60595703 188.76318359 C-231.62277347 153.96801246 -214.24809527 120.8600654 -192.46826172 93.09277344 C-191.30749767 91.60837943 -190.16915859 90.10650019 -189.03515625 88.6015625 C-178.59671361 75.16594326 -165.7818219 62.52111802 -152.125 52.375 C-151.49867676 51.89933594 -150.87235352 51.42367187 -150.22705078 50.93359375 C-139.04022879 42.45691411 -127.46887224 35.05041144 -115.125 28.375 C-114.44228027 28.00536133 -113.75956055 27.63572266 -113.05615234 27.25488281 C-98.73379439 19.59794348 -83.61873118 13.21353182 -67.875 9.1640625 C-65.2092257 8.49808515 -65.2092257 8.49808515 -63.25 7.3984375 C-45.05992423 -1.36222399 -19.67070313 -0.01512997 0 0 Z M-41.125 16.375 C-42.68995943 16.64537033 -44.2550639 16.91490251 -45.8203125 17.18359375 C-102.71713363 27.51930602 -156.24241335 63.44013605 -189.15234375 110.69140625 C-223.85261875 161.3251461 -238.14200148 222.15238055 -227.3190918 282.88330078 C-225.24524607 293.58670026 -222.64999936 304.05718197 -219.125 314.375 C-218.68631592 315.66059814 -218.68631592 315.66059814 -218.23876953 316.97216797 C-203.74704239 358.59081261 -177.13985516 396.63143252 -141.74755859 423.15820312 C-140.2982945 424.24504216 -138.8611678 425.34802276 -137.42578125 426.453125 C-117.09923951 441.76806916 -93.52895422 454.09256853 -69.125 461.375 C-68.04919678 461.70056885 -68.04919678 461.70056885 -66.95166016 462.03271484 C-26.18634213 474.13727414 15.59590926 473.88682802 56.875 464.375 C57.85597656 464.15199219 58.83695313 463.92898438 59.84765625 463.69921875 C62.56063166 463.01573345 65.20817383 462.22194479 67.875 461.375 C68.86161621 461.06900879 68.86161621 461.06900879 69.86816406 460.75683594 C101.22567929 450.89848288 129.51300291 434.66545098 153.65234375 412.41015625 C155.66364691 410.56852366 157.72319672 408.8141381 159.8125 407.0625 C180.48662208 388.91062081 196.43906152 364.19192388 207.875 339.375 C208.39320313 338.25448242 208.39320313 338.25448242 208.921875 337.11132812 C209.99974716 334.76617511 211.06577898 332.41613253 212.125 330.0625 C212.44243164 329.35794678 212.75986328 328.65339355 213.08691406 327.92749023 C230.83799433 287.72623983 235.29391993 236.16395744 224.875 193.375 C224.68776367 192.55467285 224.50052734 191.7343457 224.30761719 190.88916016 C217.06842296 159.35052899 203.55631072 130.0689311 183.875 104.375 C183.25238281 103.55902344 182.62976563 102.74304688 181.98828125 101.90234375 C176.64335324 95.06126956 170.84976326 88.66381636 164.875 82.375 C164.36807617 81.83939453 163.86115234 81.30378906 163.33886719 80.75195312 C138.86550782 55.0724831 107.39820612 36.09254393 73.78100586 25.03027344 C71.84642915 24.36517751 69.95597852 23.62164899 68.0546875 22.8671875 C59.35706782 19.5798483 49.96662538 18.17527718 40.875 16.375 C40.05435059 16.20403809 39.23370117 16.03307617 38.38818359 15.85693359 C13.01439687 10.70079166 -15.79004109 11.48570407 -41.125 16.375 Z " fill="#F8F9F9" transform="translate(508.125,185.625)"/>
<path d="M0 0 C0.71387878 -0.0049649 1.42775757 -0.00992981 2.16326904 -0.01504517 C4.53626454 -0.02970624 6.90919312 -0.03647651 9.28222656 -0.04199219 C10.92791751 -0.04774193 12.57360843 -0.05349968 14.21929932 -0.05926514 C17.67615065 -0.0697874 21.13297865 -0.07562152 24.58984375 -0.07910156 C29.01629806 -0.08457834 33.44244352 -0.10858353 37.86880112 -0.13707352 C41.27118828 -0.15571571 44.67350144 -0.16090641 48.07593536 -0.16243744 C49.70739677 -0.16546269 51.33885692 -0.17348695 52.97026825 -0.18662262 C55.2564574 -0.20371092 57.54189759 -0.20179603 59.828125 -0.1953125 C61.12860779 -0.19895813 62.42909058 -0.20260376 63.76898193 -0.20635986 C67.43100192 0.18900355 69.2737629 0.93226489 72.17285156 3.16113281 C75.36498167 7.94932797 74.66116286 13.42487448 74.70825195 19.02783203 C74.73492855 21.1278326 74.80974507 23.22258031 74.88574219 25.32128906 C75.04192411 33.49800799 73.96146681 39.13242451 68.81860352 45.81689453 C66.29021497 49.41837604 65.86609283 52.86303694 65.17285156 57.16113281 C64.17285156 58.16113281 64.17285156 58.16113281 61.67260742 58.2746582 C60.58858643 58.26942139 59.50456543 58.26418457 58.38769531 58.25878906 C56.63295898 58.25395508 56.63295898 58.25395508 54.84277344 58.24902344 C53.61107422 58.24064453 52.379375 58.23226562 51.11035156 58.22363281 C49.25700195 58.21686523 49.25700195 58.21686523 47.36621094 58.20996094 C44.30173743 58.19812899 41.23728864 58.18019289 38.17285156 58.16113281 C38.17285156 62.78113281 38.17285156 67.40113281 38.17285156 72.16113281 C33.628499 70.34339179 32.4811036 69.51161787 29.4309082 66.12451172 C23.59710277 59.96655125 18.71085989 58.55235942 10.26342773 58.27856445 C7.93773869 58.28355348 5.6118419 58.32232887 3.28735352 58.3972168 C-6.03957293 58.63541279 -6.03957293 58.63541279 -9.54980469 55.77832031 C-12.38783869 52.5167718 -12.9508466 51.07744354 -13.02001953 46.88256836 C-13.03608246 45.99792404 -13.05214539 45.11327972 -13.06869507 44.201828 C-13.11314559 40.15417229 -13.15420984 36.10668059 -13.17724609 32.05883789 C-13.19380685 29.92396138 -13.22109831 27.78914035 -13.25927734 25.65454102 C-13.31404177 22.57701851 -13.33591956 19.5007957 -13.35058594 16.42285156 C-13.37325531 15.47061203 -13.39592468 14.5183725 -13.41928101 13.53727722 C-13.40431304 8.84159259 -13.38329363 6.85430804 -10.35693359 3.08227539 C-9.52210449 2.44829834 -8.68727539 1.81432129 -7.82714844 1.16113281 C-5.9220056 -0.74401003 -2.52524963 0.01329099 0 0 Z " fill="#4EA4E3" transform="translate(347.8271484375,321.8388671875)"/>
<path d="M0 0 C0.10475524 6.79512306 -0.29763793 13.42493658 -0.9375 20.1875 C-1.12193005 22.21346571 -1.3055251 24.23950761 -1.48828125 26.265625 C-1.57674316 27.24208984 -1.66520508 28.21855469 -1.75634766 29.22460938 C-2.24677139 34.81091896 -2.63148715 40.40442333 -3 46 C-4.12588014 45.04270084 -5.2506715 44.08412105 -6.375 43.125 C-7.00148438 42.59132813 -7.62796875 42.05765625 -8.2734375 41.5078125 C-9.55836651 40.38567993 -10.79371975 39.20628025 -12 38 C-15.51298276 38.31151076 -17.21703262 39.85379363 -19.63183594 42.30712891 C-20.32645935 43.0052066 -21.02108276 43.7032843 -21.73675537 44.42251587 C-22.47846985 45.18285126 -23.22018433 45.94318665 -23.984375 46.7265625 C-24.75879944 47.50760345 -25.53322388 48.28864441 -26.33111572 49.09335327 C-28.81125914 51.59692016 -31.28106677 54.11038141 -33.75 56.625 C-36.20628336 59.116511 -38.66473316 61.60582575 -41.1260376 64.09237671 C-42.65648001 65.63959343 -44.18381319 67.18989421 -45.7074585 68.74380493 C-49.77950989 72.87204375 -53.9470822 76.80324518 -58.35406494 80.5730896 C-59.61430305 81.66562776 -60.82062735 82.82062735 -62 84 C-65.2599766 83.6620756 -66.93093236 82.41087795 -69.25 80.1875 C-75.95194498 74.25230296 -83.40786827 72.08485549 -92 70 C-92 69.34 -92 68.68 -92 68 C-90.62353516 66.64353943 -90.62353516 66.64353943 -88.6640625 65.03295898 C-83.28764664 60.45738786 -78.34999619 55.47544318 -73.375 50.47265625 C-72.37774323 49.47352972 -71.38026198 48.4746272 -70.38256836 47.47593689 C-67.78294321 44.8725305 -65.18633769 42.2661333 -62.59039307 39.65905762 C-59.93060237 36.98895726 -57.2679066 34.32175723 -54.60546875 31.65429688 C-49.40083112 26.43899962 -44.1993866 21.22053284 -39 16 C-39.40992188 15.54109375 -39.81984375 15.0821875 -40.2421875 14.609375 C-40.78101563 13.99578125 -41.31984375 13.3821875 -41.875 12.75 C-42.40867187 12.14671875 -42.94234375 11.5434375 -43.4921875 10.921875 C-44.9797487 9.02581254 -46.00322436 7.18709995 -47 5 C-41.2714039 4.28325831 -35.54223825 3.57132289 -29.8125 2.86376953 C-27.86474617 2.62256664 -25.91715235 2.38006781 -23.96972656 2.13623047 C-21.16512801 1.78529755 -18.3599807 1.43908049 -15.5546875 1.09375 C-14.25590164 0.92969666 -14.25590164 0.92969666 -12.93087769 0.7623291 C-8.58928826 0.2325745 -4.38452132 -0.12473745 0 0 Z " fill="#76D7A3" transform="translate(666,274)"/>
<path d="M0 0 C-0.41319814 15.0867711 -0.98491259 30.03357409 -3 45 C-6.84018711 42.49941305 -10.43564188 39.89034832 -14 37 C-14.42960022 37.44070328 -14.85920044 37.88140656 -15.30181885 38.33546448 C-19.76410444 42.90812423 -24.24370299 47.46328044 -28.73388672 52.00854492 C-30.40866932 53.70851589 -32.07894284 55.41294116 -33.74462891 57.12182617 C-36.13581589 59.57346851 -38.54261312 62.00878117 -40.953125 64.44140625 C-42.0705307 65.59752159 -42.0705307 65.59752159 -43.21051025 66.7769928 C-43.91093445 67.47779465 -44.61135864 68.1785965 -45.33300781 68.90063477 C-45.94589661 69.52462662 -46.5587854 70.14861847 -47.19024658 70.79151917 C-49 72 -49 72 -51.04730225 71.76597595 C-53.73575867 70.71138726 -56.40558155 69.63256499 -59.0625 68.5 C-64.79513805 66.06238877 -68.97195368 64.84376517 -75.25 64.8125 C-76.53390625 64.79832031 -77.8178125 64.78414063 -79.140625 64.76953125 C-83.14828876 65.0088553 -86.210452 65.75808854 -90 67 C-87.34473939 63.59794734 -84.69336614 60.64680644 -81.39453125 57.86108398 C-76.60466129 53.71696482 -72.15021114 49.276241 -67.6875 44.78515625 C-66.83317383 43.92941513 -65.97884766 43.07367401 -65.09863281 42.19200134 C-62.39671138 39.48452619 -59.69830641 36.77357746 -57 34.0625 C-55.15778423 32.21526325 -53.31533857 30.36825573 -51.47265625 28.52148438 C-46.97910939 24.01696997 -42.4884368 19.50960595 -38 15 C-39.40345244 12.05918078 -40.72392764 10.09048223 -43.125 7.875 C-44.7578125 6.3671875 -44.7578125 6.3671875 -46 5 C-46 4.34 -46 3.68 -46 3 C-40.4134667 2.569856 -34.82671593 2.14269819 -29.23974609 1.71826172 C-27.34059538 1.5735676 -25.44150578 1.42806897 -23.54248047 1.28173828 C-20.80712443 1.07110584 -18.07155902 0.86340244 -15.3359375 0.65625 C-14.49195404 0.59062866 -13.64797058 0.52500732 -12.77841187 0.45739746 C-8.50665186 0.13683406 -4.28786521 -0.07277848 0 0 Z " fill="#44C9DB" transform="translate(617,257)"/>
<path d="M0 0 C4.06212212 -0.14547545 8.12357287 -0.23413226 12.1875 -0.3125 C13.91323242 -0.3753418 13.91323242 -0.3753418 15.67382812 -0.43945312 C24.04108073 -0.56071766 24.04108073 -0.56071766 26.88134766 1.10009766 C28.23828125 2.45703125 28.23828125 2.45703125 30 5 C30.495 5.495 30.495 5.495 31 6 C31.29357605 12.03614658 31.3141558 18.07482867 31.35009766 24.11743164 C31.36662755 26.15530847 31.39387822 28.19312803 31.43212891 30.23071289 C31.48701289 33.16843765 31.50879267 36.10479967 31.5234375 39.04296875 C31.54610687 39.94943649 31.56877625 40.85590424 31.59213257 41.7898407 C31.57759414 46.16259519 31.40175082 49.08522736 28.59228516 52.55981445 C24.94505446 55.99304772 24.94505446 55.99304772 21.97558594 56.01489258 C21.15348633 55.97517334 20.33138672 55.9354541 19.484375 55.89453125 C9.31403152 55.67162697 1.59604296 55.6354901 -6.0625 62.9375 C-7.12467987 64.02139907 -8.1786209 65.11345668 -9.22265625 66.21484375 C-12 69 -12 69 -17 71 C-17.495 64.07 -17.495 64.07 -18 57 C-25.92 56.67 -33.84 56.34 -42 56 C-41.34 53.69 -40.68 51.38 -40 49 C-37.23033244 47.66462457 -34.9165456 46.82286512 -32 46 C-20.36213938 42.09580599 -11.7086959 35.71808053 -5.81640625 24.80859375 C-2.01733146 16.80687946 -0.91603156 8.72052636 0 0 Z " fill="#5B93E3" transform="translate(637,506)"/>
<path d="M0 0 C6.21841548 3.33756763 11.43097445 8.53526351 14.33984375 15.0078125 C16.44924284 22.77139967 16.06907808 31.35040455 12.24609375 38.48046875 C11.62927734 39.44919922 11.62927734 39.44919922 11 40.4375 C10.59910156 41.07300781 10.19820312 41.70851563 9.78515625 42.36328125 C5.77937083 47.78560528 0.38951679 50.55026524 -6 52.4375 C-10.62008217 52.96429836 -15.02724799 53.01429219 -19.51171875 51.703125 C-23.02190212 51.32841155 -24.22690681 52.6457383 -26.9375 54.8125 C-30.65865125 57.77290876 -33.24438248 58.95293926 -38 59.4375 C-37.54554036 58.01958592 -37.08625056 56.60321954 -36.625 55.1875 C-36.36976563 54.39859375 -36.11453125 53.6096875 -35.8515625 52.796875 C-35 50.4375 -35 50.4375 -33.890625 48.28125 C-32.58520954 45.57881097 -33.09284598 44.28855548 -34 41.4375 C-34.97028707 39.39500494 -35.99021005 37.39317619 -37.0625 35.40234375 C-39.76313328 29.74226649 -40.02052947 23.02976372 -38.31640625 17.03125 C-35.13710877 9.32706026 -30.25405045 3.15287349 -22.75390625 -0.6796875 C-15.5519659 -2.98839462 -7.05096879 -2.77692264 0 0 Z " fill="#6AD5AB" transform="translate(668,371.5625)"/>
<path d="M0 0 C3.58552881 1.63687185 4.79315055 2.68972583 7 6 C7.67577735 9.73455906 7.69852858 13.36218785 6.1953125 16.88671875 C4.48210653 19.32656036 2.73931032 20.81149592 -0.16015625 21.55078125 C-2.5 21.8125 -2.5 21.8125 -4.71875 21.89453125 C-10.08359571 22.1425635 -12.59062234 23.08829165 -16.3125 27.0625 C-17.00988281 27.79597656 -17.70726562 28.52945312 -18.42578125 29.28515625 C-18.94527344 29.85105469 -19.46476563 30.41695313 -20 31 C-18.54847923 35.41101035 -16.3126579 38.3461281 -13.25 41.8125 C-12.40953125 42.78832031 -11.5690625 43.76414062 -10.703125 44.76953125 C-8.17135371 47.25526158 -8.17135371 47.25526158 -4.86328125 47.4375 C-0.80974269 46.81813258 1.51703798 45.14197875 4 42 C5.91289625 38.42524375 7.50859819 34.76809926 9 31 C10.65 31 12.3 31 14 31 C15.40572737 35.52494492 14.55539033 37.83853127 12.4375 42 C9.08234915 48.33664222 5.65178995 52.1138416 -1 55 C-3.18359375 55.37109375 -3.18359375 55.37109375 -5.4375 55.4375 C-6.17871094 55.47746094 -6.91992188 55.51742187 -7.68359375 55.55859375 C-12.38844466 54.42403443 -14.84611061 50.29823834 -17.3828125 46.44921875 C-21.13539058 41.09558731 -24.55822319 36.68027291 -31.24365234 35.35888672 C-39.18229961 34.7675396 -47.087451 35.22634366 -55 36 C-55.17483956 40.20780547 -55.28103946 44.41467311 -55.375 48.625 C-55.42527344 49.81480469 -55.47554687 51.00460937 -55.52734375 52.23046875 C-55.81793353 59.64433366 -55.81793353 59.64433366 -52.19921875 65.76953125 C-48.78962201 68.14667379 -45.97662769 68.91546517 -42 70 C-38.86253558 72.13614599 -37.28378101 73.59724507 -36.51953125 77.375 C-36.26202623 82.05184793 -36.44328529 84.28213103 -39.375 88.0625 C-43.4899171 91.09970072 -45.83909023 91.51609098 -51 91 C-53.97672584 89.22719439 -56.42804007 87.14391985 -58 84 C-58.2430836 79.05730019 -58.25495121 75.50990242 -56 71 C-56.49656601 70.55002655 -56.99313202 70.1000531 -57.50474548 69.63644409 C-62.22824666 64.90979818 -63.80203554 61.65092225 -63.84437561 54.97903442 C-63.81452072 53.99853119 -63.78466583 53.01802795 -63.75390625 52.0078125 C-63.74874496 50.98066132 -63.74358368 49.95351013 -63.73826599 48.89523315 C-63.72120521 46.73855738 -63.68748627 44.58195531 -63.63793945 42.42578125 C-63.56224971 39.11404861 -63.53546898 35.80469121 -63.51757812 32.4921875 C-63.49500027 30.39319703 -63.46970629 28.29423362 -63.44140625 26.1953125 C-63.42976944 25.20266388 -63.41813263 24.21001526 -63.40614319 23.18728638 C-63.38370041 22.27228363 -63.36125763 21.35728088 -63.33813477 20.41455078 C-63.32146255 19.60817169 -63.30479034 18.8017926 -63.28761292 17.97097778 C-63 16 -63 16 -61 14 C-57.46428571 14.53571429 -57.46428571 14.53571429 -56 16 C-55.76636119 17.84891946 -55.58696365 19.70488031 -55.4375 21.5625 C-55.35371094 22.57441406 -55.26992188 23.58632813 -55.18359375 24.62890625 C-55.09271484 25.80259766 -55.09271484 25.80259766 -55 27 C-50.52196615 27.26346674 -46.04594102 27.42190429 -41.5625 27.5625 C-39.67241211 27.67561523 -39.67241211 27.67561523 -37.74414062 27.79101562 C-30.5416616 28.01254046 -30.5416616 28.01254046 -24.18701172 25.02685547 C-21.96578797 22.78042634 -19.99518832 20.44505916 -18 18 C-17.01 17.34 -16.02 16.68 -15 16 C-15.03277492 14.03350479 -15.06982963 12.06675929 -15.1484375 10.1015625 C-14.90440119 6.6465221 -13.16141656 4.59369988 -11 2 C-7.29361264 -0.47092491 -4.29830496 -0.55407837 0 0 Z " fill="#1C202A" transform="translate(596,456)"/>
<path d="M0 0 C3.0220794 1.74450506 5.41651082 3.83302164 7 7 C6.98839844 7.598125 6.97679687 8.19625 6.96484375 8.8125 C6.91126344 13.09892518 7.49610064 15.36835151 10.21875 18.78125 C15.5982166 24.72980682 15.5982166 24.72980682 22.79736328 27.11352539 C24.54122314 27.10567017 24.54122314 27.10567017 26.3203125 27.09765625 C28.20556641 27.09282227 28.20556641 27.09282227 30.12890625 27.08789062 C31.44761719 27.07951172 32.76632812 27.07113281 34.125 27.0625 C35.46484211 27.05748489 36.804686 27.05292201 38.14453125 27.04882812 C41.42973206 27.03701086 44.71484397 27.02053617 48 27 C48.33 23.04 48.66 19.08 49 15 C51.475 14.505 51.475 14.505 54 14 C55.59609247 15.59609247 55.16727543 17.28800628 55.20874023 19.50048828 C55.22803085 20.45883575 55.24732147 21.41718323 55.26719666 22.40457153 C55.32482648 26.81167052 55.37425848 31.21860106 55.4050293 35.62597656 C55.42657815 37.94806824 55.46064351 40.27007937 55.50756836 42.59179688 C55.57463997 45.93917139 55.60204582 49.28486029 55.62109375 52.6328125 C55.64892441 53.66536163 55.67675507 54.69791077 55.70542908 55.76174927 C55.69066563 60.96185841 55.40578043 64.16680353 51.96118164 68.21044922 C50.99867977 69.16569797 50.01964493 70.10600098 49 71 C49.33 71.680625 49.66 72.36125 50 73.0625 C51.2242831 76.65883162 51.39824113 79.21670923 51 83 C48.97333762 86.70390021 47.51955484 88.65363011 44 91 C37.32662295 91.76579737 37.32662295 91.76579737 34.1796875 89.94921875 C30.36847332 86.82844193 29.11307212 85.1307212 28.625 80.25 C28.69439701 76.42622461 29.67828994 74.08409448 32.37890625 71.23046875 C34.68304038 69.48154766 37.04861217 68.7190278 39.83984375 68.03125 C43.42584432 66.31930759 46.00669019 64.4175586 48 61 C48.73020877 56.68347295 48.56700075 52.48686316 48.375 48.125 C48.34792969 46.9596875 48.32085937 45.794375 48.29296875 44.59375 C48.22248125 41.72725828 48.12399461 38.86459345 48 36 C31.06485943 33.69449044 31.06485943 33.69449044 15.64453125 38.68359375 C13.05498334 41.29179067 10.99540622 44.16773044 9.06738281 47.28857422 C4.5463075 54.53759936 4.5463075 54.53759936 0.5703125 55.7265625 C-5.12346676 55.49007966 -9.68538729 54.95506165 -14 51 C-17.92730698 46.20201648 -21.03944663 40.8816601 -23 35 C-22.6875 32.5625 -22.6875 32.5625 -22 31 C-20.35 31 -18.7 31 -17 31 C-16.43732422 32.22976563 -16.43732422 32.22976563 -15.86328125 33.484375 C-15.35152344 34.56203125 -14.83976562 35.6396875 -14.3125 36.75 C-13.81363281 37.81734375 -13.31476563 38.8846875 -12.80078125 39.984375 C-10.83410628 43.27780901 -9.28099637 45.02083382 -6 47 C-3.01079455 47.77605144 -3.01079455 47.77605144 0 47 C2.82169728 44.72488127 2.82169728 44.72488127 5.25 41.6875 C6.10078125 40.70136719 6.9515625 39.71523438 7.828125 38.69921875 C10.95630518 35.30621968 10.95630518 35.30621968 11.83984375 31.08203125 C10.08469828 26.73090318 6.8891384 23.54192053 3 21 C0.24144232 20.79937762 -2.02543347 21.15642896 -4.734375 21.67578125 C-7 22 -7 22 -9.9375 20.875 C-13.218108 17.89262909 -14.77956477 15.48006514 -15.4375 11.0625 C-14.8806713 7.16469912 -13.43417323 5.06010349 -11 2 C-7.3112362 -0.45917586 -4.2815571 -0.81591937 0 0 Z " fill="#1C1D28" transform="translate(436,456)"/>
<path d="M0 0 C3.63 0 7.26 0 11 0 C12.12693219 3.83277471 13.25160414 7.66618875 14.375 11.5 C14.69210937 12.57765625 15.00921875 13.6553125 15.3359375 14.765625 C17.01032755 20.48645767 18.60726096 26.2039547 20 32 C21.81238706 28.68926578 22.86582257 25.35974816 23.91015625 21.73828125 C24.26013672 20.53751953 24.61011719 19.33675781 24.97070312 18.09960938 C25.33099609 16.84986328 25.69128906 15.60011719 26.0625 14.3125 C26.77962552 11.82858029 27.49952325 9.34545868 28.22265625 6.86328125 C28.53984619 5.76282471 28.85703613 4.66236816 29.18383789 3.52856445 C30 1 30 1 31 0 C32.68608966 -0.07205511 34.37500659 -0.08386068 36.0625 -0.0625 C36.98160156 -0.05347656 37.90070312 -0.04445313 38.84765625 -0.03515625 C39.55792969 -0.02355469 40.26820313 -0.01195312 41 0 C43.11356983 5.46570389 44.94700938 10.93121565 46.5625 16.5625 C46.77068359 17.27857422 46.97886719 17.99464844 47.19335938 18.73242188 C48.47591778 23.15101652 49.7383219 27.57540537 51 32 C54.15793643 22.80212689 57.28202264 13.67844668 59.45703125 4.1875 C60 2 60 2 61 0 C64.63 0 68.26 0 72 0 C69.07394398 9.91778987 65.93313616 19.76718708 62.8125 29.625 C62.24797981 31.41013504 61.68352612 33.19529112 61.11914062 34.98046875 C59.74686079 39.3205555 58.37367962 43.66035611 57 48 C53.37 48 49.74 48 46 48 C43.22541659 42.06039779 41.52991177 36.02024026 39.875 29.6875 C39.35339324 27.71175535 38.83004329 25.73646983 38.3046875 23.76171875 C38.07765137 22.89506592 37.85061523 22.02841309 37.61669922 21.13549805 C37.06227638 18.97330278 37.06227638 18.97330278 36 17 C33.91551155 22.26607609 32.13289289 27.59879266 30.4375 33 C30.22778564 33.66386719 30.01807129 34.32773437 29.80200195 35.01171875 C28.36287257 39.63874983 27.14060149 44.29041964 26 49 C22.04 49 18.08 49 14 49 C13.319375 46.1846875 13.319375 46.1846875 12.625 43.3125 C11.1949765 37.68769647 9.41994788 32.20047701 7.5078125 26.72265625 C7.28392853 26.08115128 7.06004456 25.4396463 6.82937622 24.77870178 C5.68474849 21.51185465 4.52605857 18.25050979 3.35400391 14.9934082 C2.92265137 13.77613037 2.49129883 12.55885254 2.046875 11.3046875 C1.65338867 10.21140137 1.25990234 9.11811523 0.85449219 7.99169922 C0 5 0 5 0 0 Z " fill="#F3F3F3" transform="translate(689,729)"/>
<path d="M0 0 C6.6825 -0.12375 6.6825 -0.12375 13.5 -0.25 C15.58344727 -0.30462402 15.58344727 -0.30462402 17.70898438 -0.36035156 C26.3300109 -0.43745826 32.11552417 0.21263607 38.5 6.4375 C40.80623703 11.91481294 40.74570044 17.14625156 40 23 C37.96095587 27.15091127 35.24505681 29.77539522 32 33 C32.721875 33.98742187 33.44375 34.97484375 34.1875 35.9921875 C35.12524749 37.28627903 36.06273402 38.58055969 37 39.875 C37.47695313 40.52597656 37.95390625 41.17695312 38.4453125 41.84765625 C42 46.7734375 42 46.7734375 42 49 C37.75922627 49.82695088 34.20204982 50.12225477 30 49 C26.53278473 45.20182327 22 39.35547777 22 34 C18.37 34 14.74 34 11 34 C11 38.95 11 43.9 11 49 C7.37 49 3.74 49 0 49 C0 32.83 0 16.66 0 0 Z " fill="#F1F2F2" transform="translate(525,729)"/>
<path d="M0 0 C10 0 10 0 12.29345703 1.56958008 C12.77669434 2.29556396 13.25993164 3.02154785 13.7578125 3.76953125 C14.32113281 4.57712891 14.88445312 5.38472656 15.46484375 6.21679688 C16.01269531 7.07337891 16.56054688 7.92996094 17.125 8.8125 C17.68058594 9.62654297 18.23617188 10.44058594 18.80859375 11.27929688 C20.55657905 13.84099948 22.27795647 16.42078715 24 19 C26.64 22.63 29.28 26.26 32 30 C32.33 20.1 32.66 10.2 33 0 C36.3 0 39.6 0 43 0 C43 15.84 43 31.68 43 48 C33 48 33 48 29.49609375 44.703125 C28.44352446 43.24199154 27.42502744 41.75585612 26.4375 40.25 C25.89520752 39.48244385 25.35291504 38.7148877 24.79418945 37.92407227 C23.69726207 36.37042922 22.61267521 34.80799498 21.54101562 33.23681641 C19.7578342 30.64849128 17.88796863 28.13905486 15.98339844 25.6394043 C14.30701024 23.43780254 12.65581884 21.21711337 11 19 C10.67 28.57 10.34 38.14 10 48 C6.7 48 3.4 48 0 48 C0 32.16 0 16.32 0 0 Z " fill="#F7F7F8" transform="translate(382,729)"/>
<path d="M0 0 C2.57161458 0.03255208 5.14322917 0.06510417 7.71484375 0.09765625 C12.45374095 9.18333539 16.56903335 18.47643876 20.57617188 27.90161133 C21.60509703 30.32102277 22.64003497 32.73779869 23.67578125 35.15429688 C24.33237708 36.69125856 24.98864004 38.22836249 25.64453125 39.765625 C25.95381561 40.48840134 26.26309998 41.21117767 26.58175659 41.95585632 C28.71484375 46.98149898 28.71484375 46.98149898 28.71484375 48.09765625 C25.08484375 48.09765625 21.45484375 48.09765625 17.71484375 48.09765625 C13.71484375 40.34765625 13.71484375 40.34765625 13.71484375 38.09765625 C6.45484375 38.42765625 -0.80515625 38.75765625 -8.28515625 39.09765625 C-9.60515625 42.06765625 -10.92515625 45.03765625 -12.28515625 48.09765625 C-15.58515625 48.09765625 -18.88515625 48.09765625 -22.28515625 48.09765625 C-21.6364842 44.09343369 -20.38701238 40.6925114 -18.7734375 36.9765625 C-18.26232422 35.79255859 -17.75121094 34.60855469 -17.22460938 33.38867188 C-16.68243853 32.14576926 -16.14012046 30.90293086 -15.59765625 29.66015625 C-15.08009766 28.46455078 -14.56253906 27.26894531 -14.02929688 26.03710938 C-12.98363486 23.62153896 -11.93561914 21.20698606 -10.88525391 18.79345703 C-9.77374439 16.23440821 -8.67610539 13.66990744 -7.58740234 11.10107422 C-7.31324997 10.45549057 -7.0390976 9.80990692 -6.75663757 9.14476013 C-5.9937823 7.34587384 -5.2335124 5.54589182 -4.47338867 3.74584961 C-2.8472387 0.12167687 -2.8472387 0.12167687 0 0 Z " fill="#F4F5F5" transform="translate(284.28515625,728.90234375)"/>
<path d="M0 0 C11.55 0 23.1 0 35 0 C35 2.97 35 5.94 35 9 C26.75 9 18.5 9 10 9 C10 12.63 10 16.26 10 20 C17.59 20 25.18 20 33 20 C33 22.97 33 25.94 33 29 C25.41 29 17.82 29 10 29 C10 32.63 10 36.26 10 40 C18.58 40 27.16 40 36 40 C36 42.64 36 45.28 36 48 C24.12 48 12.24 48 0 48 C0 32.16 0 16.32 0 0 Z " fill="#F7F8F8" transform="translate(480,729)"/>
<path d="M0 0 C11.88 0 23.76 0 36 0 C36 2.97 36 5.94 36 9 C27.42 9 18.84 9 10 9 C10 12.63 10 16.26 10 20 C17.59 20 25.18 20 33 20 C33 22.64 33 25.28 33 28 C25.41 28 17.82 28 10 28 C10 31.96 10 35.92 10 40 C18.58 40 27.16 40 36 40 C36 42.64 36 45.28 36 48 C24.12 48 12.24 48 0 48 C0 32.16 0 16.32 0 0 Z " fill="#F9FAFA" transform="translate(647,729)"/>
<path d="M0 0 C3.96 0 7.92 0 12 0 C16.29 10.89 20.58 21.78 25 33 C27.04867456 29.92698816 28.23231145 27.09155348 29.56640625 23.65234375 C29.80536118 23.03984268 30.0443161 22.42734161 30.29051208 21.79627991 C31.05122345 19.84464923 31.80705372 17.89117403 32.5625 15.9375 C33.32242681 13.98062238 34.08336082 12.02414246 34.84519958 10.06800842 C35.53482711 8.29598741 36.22170352 6.52289647 36.90844727 4.74975586 C38 2 38 2 39 0 C42.63 0 46.26 0 50 0 C47.98000454 6.25679243 45.72490251 12.33840572 43.20703125 18.41015625 C42.85613937 19.26306747 42.5052475 20.1159787 42.14372253 20.99473572 C41.03612316 23.68515795 39.9243885 26.37384794 38.8125 29.0625 C38.055063 30.90027709 37.29789899 32.73816671 36.54101562 34.57617188 C34.697161 39.0520873 32.8495989 43.52645543 31 48 C27.37 48 23.74 48 20 48 C17.08993845 42.33476206 14.510956 36.6194989 12.109375 30.72265625 C11.75989807 29.87070175 11.41042114 29.01874725 11.050354 28.14097595 C10.31953522 26.35752468 9.59020311 24.57346354 8.86230469 22.78881836 C7.74266373 20.0445184 6.61778152 17.3024098 5.4921875 14.56054688 C4.78094335 12.82304216 4.06999499 11.08541633 3.359375 9.34765625 C2.85322662 8.11342674 2.85322662 8.11342674 2.33685303 6.85426331 C0 1.1158216 0 1.1158216 0 0 Z " fill="#F5F5F5" transform="translate(569,729)"/>
<path d="M0 0 C0.66 0 1.32 0 2 0 C2.51046875 1.17755859 2.51046875 1.17755859 3.03125 2.37890625 C8.05320028 13.26425062 13.78827324 18.82155554 25 23 C25 23.66 25 24.32 25 25 C24.21496094 25.3403125 23.42992187 25.680625 22.62109375 26.03125 C11.73574938 31.05320028 6.17844446 36.78827324 2 48 C1.34 48 0.68 48 0 48 C-0.3403125 47.21496094 -0.680625 46.42992187 -1.03125 45.62109375 C-6.05320028 34.73574938 -11.78827324 29.17844446 -23 25 C-23 24.34 -23 23.68 -23 23 C-22.21496094 22.6596875 -21.42992187 22.319375 -20.62109375 21.96875 C-9.73574938 16.94679972 -4.17844446 11.21172676 0 0 Z " fill="#848689" transform="translate(967,944)"/>
<path d="M0 0 C13.2 0 26.4 0 40 0 C40 2.97 40 5.94 40 9 C35.05 9 30.1 9 25 9 C25 21.87 25 34.74 25 48 C21.7 48 18.4 48 15 48 C15 35.13 15 22.26 15 9 C10.05 9 5.1 9 0 9 C0 6.03 0 3.06 0 0 Z " fill="#F9F9F9" transform="translate(432,729)"/>
<path d="M0 0 C2.82424288 2.19022918 4.41508603 3.83017207 6 7 C6.2219407 11.9116442 5.69876189 15.13998537 2.5625 19 C-0.25343078 21.02290015 -2.33277801 21.16059274 -5.75 21.1875 C-10.75720535 21.42162272 -12.82701579 23.22296009 -16.3125 26.75 C-17.88737575 28.48887108 -19.449964 30.2389507 -21 32 C-21.9075 32.72316406 -22.815 33.44632812 -23.75 34.19140625 C-27.05738281 38.31989278 -26.7058605 42.0428874 -26.6875 47.1875 C-26.70404622 48.99358323 -26.72840045 50.79961706 -26.76171875 52.60546875 C-26.76131592 53.40106201 -26.76091309 54.19665527 -26.76049805 55.01635742 C-27 57 -27 57 -29 59 C-32.53571429 58.46428571 -32.53571429 58.46428571 -34 57 C-34.392915 53.49067117 -34.41852805 49.96568811 -34.5 46.4375 C-34.55414062 45.45974609 -34.60828125 44.48199219 -34.6640625 43.47460938 C-34.76510585 38.08683368 -34.40134253 34.77732571 -30.80078125 30.62890625 C-29.5546858 29.39782209 -28.28863805 28.18647969 -27 27 C-26.06110501 26.01544494 -25.1269036 25.02637476 -24.19921875 24.03125 C-23.37035156 23.1959375 -22.54148437 22.360625 -21.6875 21.5 C-20.84574219 20.6440625 -20.00398437 19.788125 -19.13671875 18.90625 C-17 17 -17 17 -15 17 C-15.33 16.01 -15.66 15.02 -16 14 C-16.57279236 6.8973747 -16.57279236 6.8973747 -14.125 3.0625 C-10.0317096 -0.9103995 -5.47565053 -0.79207523 0 0 Z " fill="#181C21" transform="translate(587,401)"/>
<path d="M0 0 C2.86918821 1.90309238 4.48773581 3.91938676 6 7 C5.93920898 9.31616211 5.93920898 9.31616211 5.62109375 11.77734375 C5.54076615 14.99427293 5.57479061 16.45880654 7.58422852 19.01635742 C9.83998454 20.95579675 12.15647554 22.792773 14.5 24.625 C19.96497807 29.35771181 23.40775118 33.04474548 24.12890625 40.43359375 C24.2467053 46.32960935 23.81464354 52.16184418 23 58 C21.34385343 58.38218767 19.67542976 58.71395102 18 59 C17.67 58.67 17.34 58.34 17 58 C17.02521021 56.61042808 17.10631746 55.22179475 17.2109375 53.8359375 C17.5954202 44.6254407 17.4751877 37.36156407 11.12304688 30.20874023 C6.25788112 25.43928461 1.95905011 21.28670554 -5.125 20.8125 C-5.99125 20.85890625 -6.8575 20.9053125 -7.75 20.953125 C-10 21 -10 21 -13.125 19.0625 C-16.29170061 15.57912933 -16.38885818 12.89801815 -16.359375 8.328125 C-15.75455722 4.40995764 -13.83123243 2.69641184 -11 0 C-7.42163903 -1.78918049 -3.75105631 -1.09955587 0 0 Z " fill="#1A1D25" transform="translate(448,401)"/>
<path d="M0 0 C2.866875 -0.061875 5.73375 -0.12375 8.6875 -0.1875 C10.02880981 -0.22846802 10.02880981 -0.22846802 11.3972168 -0.27026367 C16.08935444 -0.3192004 19.22122733 -0.09960512 23 3 C25.45193779 6.67790669 25.71511798 9.72592275 25 14 C23 17 23 17 21 19 C22.33488128 22.59391114 23.96022723 25.75490696 26 29 C23.36 29 20.72 29 18 29 C17.484375 27.865625 16.96875 26.73125 16.4375 25.5625 C15.42041851 23.60110246 15.42041851 23.60110246 14 22 C10.36852515 20.9434891 10.36852515 20.9434891 7 21 C7 23.97 7 26.94 7 30 C4.69 30 2.38 30 0 30 C0 20.1 0 10.2 0 0 Z " fill="#43B8D4" transform="translate(392,802)"/>
<path d="M0 0 C2.87029869 1.79393668 4.49131638 2.98263276 6 6 C6.5340875 9.81491075 6.83229624 13.46894758 4.953125 16.92578125 C3.625 18.5625 3.625 18.5625 1 21 C0.34 21 -0.32 21 -1 21 C-0.97381592 21.69561035 -0.94763184 22.3912207 -0.9206543 23.10791016 C-0.81629051 26.28004085 -0.7515494 29.45180978 -0.6875 32.625 C-0.6246582 34.26662109 -0.6246582 34.26662109 -0.56054688 35.94140625 C-0.42243304 45.05691964 -0.42243304 45.05691964 -3.51953125 48.7734375 C-4.74736328 49.87558594 -4.74736328 49.87558594 -6 51 C-6.7425 50.79375 -7.485 50.5875 -8.25 50.375 C-11.32330841 49.95591249 -12.42786866 50.38050989 -15 52 C-14.8125 50.3125 -14.8125 50.3125 -14 48 C-13.175 47.360625 -12.35 46.72125 -11.5 46.0625 C-7.8056287 41.53689515 -8.22020283 37.36689234 -8.1875 31.6875 C-8.16236328 30.66076172 -8.13722656 29.63402344 -8.11132812 28.57617188 C-8.05258915 26.050396 -8.01621288 23.52634772 -8 21 C-8.62519531 20.69795654 -9.25039063 20.39591309 -9.89453125 20.0847168 C-12.88737772 18.54283172 -14.60136926 17.18909738 -15.6875 13.94921875 C-16.51248602 7.97838241 -16.51248602 7.97838241 -15.01171875 5.11328125 C-10.61543409 -0.24266436 -6.61985102 -0.85749366 0 0 Z " fill="#1A242A" transform="translate(555,369)"/>
<path d="M0 0 C2.64 0 5.28 0 8 0 C10.64 5.28 13.28 10.56 16 16 C18.55820816 12.58905579 20.32943579 9.54870905 22.1875 5.75 C22.98220703 4.13351562 22.98220703 4.13351562 23.79296875 2.484375 C24.19128906 1.66453125 24.58960938 0.8446875 25 0 C27.31 0 29.62 0 32 0 C32 9.57 32 19.14 32 29 C30.35 29 28.7 29 27 29 C26.67 23.39 26.34 17.78 26 12 C23.36 16.95 20.72 21.9 18 27 C16.68 27 15.36 27 14 27 C11.69 22.05 9.38 17.1 7 12 C6.67 17.94 6.34 23.88 6 30 C4.02 30 2.04 30 0 30 C0 20.1 0 10.2 0 0 Z " fill="#43CEED" transform="translate(570,802)"/>
<path d="M0 0 C3.58552881 1.63687185 4.79315055 2.68972583 7 6 C7.67577735 9.73455906 7.69852858 13.36218785 6.1953125 16.88671875 C4.48210653 19.32656036 2.73931032 20.81149592 -0.16015625 21.55078125 C-2.4480617 21.80669054 -4.69896119 21.94521336 -7 22 C-12.10353439 22.24302545 -14.28632127 24.94520612 -17.64453125 28.50390625 C-18.09183594 28.99761719 -18.53914062 29.49132812 -19 30 C-19.61875 29.360625 -20.2375 28.72125 -20.875 28.0625 C-22.82597612 25.96116416 -22.82597612 25.96116416 -25 25 C-23.89902432 23.87187697 -22.79408444 22.74762189 -21.6875 21.625 C-21.07261719 20.99851562 -20.45773437 20.37203125 -19.82421875 19.7265625 C-18 18 -18 18 -15 16 C-15.03277492 14.03350479 -15.06982963 12.06675929 -15.1484375 10.1015625 C-14.90440119 6.6465221 -13.16141656 4.59369988 -11 2 C-7.29361264 -0.47092491 -4.29830496 -0.55407837 0 0 Z " fill="#1A2027" transform="translate(596,456)"/>
<path d="M0 0 C3.3 0 6.6 0 10 0 C10 15.84 10 31.68 10 48 C6.7 48 3.4 48 0 48 C0 32.16 0 16.32 0 0 Z " fill="#F9F9F9" transform="translate(625,729)"/>
<path d="M0 0 C3.3 0 6.6 0 10 0 C10 15.84 10 31.68 10 48 C6.7 48 3.4 48 0 48 C0 32.16 0 16.32 0 0 Z " fill="#F7F8F8" transform="translate(360,729)"/>
<path d="M0 0 C3.3 0 6.6 0 10 0 C10 15.84 10 31.68 10 48 C6.7 48 3.4 48 0 48 C0 32.16 0 16.32 0 0 Z " fill="#FAFAFB" transform="translate(319,729)"/>
<path d="M0 0 C1.134375 0.020625 2.26875 0.04125 3.4375 0.0625 C15.4375 25.37662104 15.4375 25.37662104 15.4375 29.0625 C12.625 29.375 12.625 29.375 9.4375 29.0625 C9.025 28.2478125 8.6125 27.433125 8.1875 26.59375 C6.6143462 23.69813529 6.6143462 23.69813529 3.08203125 23.35546875 C1.81746094 23.32066406 0.55289062 23.28585937 -0.75 23.25 C-2.02230469 23.20230469 -3.29460937 23.15460937 -4.60546875 23.10546875 C-5.58128906 23.09128906 -6.55710937 23.07710937 -7.5625 23.0625 C-8.2225 25.3725 -8.8825 27.6825 -9.5625 30.0625 C-11.8725 30.0625 -14.1825 30.0625 -16.5625 30.0625 C-15.28965142 26.10774672 -13.86972019 22.29056395 -12.21484375 18.48046875 C-11.77462891 17.46662109 -11.33441406 16.45277344 -10.88085938 15.40820312 C-10.19733398 13.84489258 -10.19733398 13.84489258 -9.5 12.25 C-9.04044922 11.18845703 -8.58089844 10.12691406 -8.10742188 9.03320312 C-4.20378324 0.07375058 -4.20378324 0.07375058 0 0 Z " fill="#40CAE8" transform="translate(465.5625,801.9375)"/>
<path d="M0 0 C3.0220794 1.74450506 5.41651082 3.83302164 7 7 C7.02567275 8.37491816 7.04573103 9.74994443 7.0625 11.125 C7.61545828 17.21741538 11.51159445 20.24773386 16 24 C15.34 24.433125 14.68 24.86625 14 25.3125 C13.34 25.869375 12.68 26.42625 12 27 C12 27.99 12 28.98 12 30 C11.46632813 29.33871094 10.93265625 28.67742187 10.3828125 27.99609375 C6.21762649 22.91101335 6.21762649 22.91101335 0.3515625 20.73046875 C-1.36261951 20.99042728 -3.07095485 21.29300937 -4.76953125 21.640625 C-7 22 -7 22 -9.9375 20.875 C-13.218108 17.89262909 -14.77956477 15.48006514 -15.4375 11.0625 C-14.8806713 7.16469912 -13.43417323 5.06010349 -11 2 C-7.3112362 -0.45917586 -4.2815571 -0.81591937 0 0 Z " fill="#1B1D26" transform="translate(436,456)"/>
<path d="M0 0 C7.26 0 14.52 0 22 0 C22 1.65 22 3.3 22 5 C16.72 5 11.44 5 6 5 C6 7.31 6 9.62 6 12 C10.95 12 15.9 12 21 12 C21 13.65 21 15.3 21 17 C16.05 17 11.1 17 6 17 C6 19.31 6 21.62 6 24 C11.61 24 17.22 24 23 24 C23 25.98 23 27.96 23 30 C15.41 30 7.82 30 0 30 C0 20.1 0 10.2 0 0 Z " fill="#43CFEF" transform="translate(610,802)"/>
<path d="M0 0 C7.26 0 14.52 0 22 0 C22 1.65 22 3.3 22 5 C16.72 5 11.44 5 6 5 C6 7.31 6 9.62 6 12 C10.62 12 15.24 12 20 12 C20 13.65 20 15.3 20 17 C15.38 17 10.76 17 6 17 C6 19.31 6 21.62 6 24 C11.28 24 16.56 24 22 24 C22 25.65 22 27.3 22 29 C14.74 29 7.48 29 0 29 C0 19.43 0 9.86 0 0 Z " fill="#43D1EE" transform="translate(424,802)"/>
<path d="M0 0 C1.65 0 3.3 0 5 0 C6.40572737 4.52494492 5.55539033 6.83853127 3.4375 11 C0.08234915 17.33664222 -3.34821005 21.1138416 -10 24 C-12.18359375 24.37109375 -12.18359375 24.37109375 -14.4375 24.4375 C-15.54931641 24.49744141 -15.54931641 24.49744141 -16.68359375 24.55859375 C-20.16836236 23.71825326 -21.63203612 21.63672051 -24 19 C-24.88300781 18.04480469 -25.76601563 17.08960938 -26.67578125 16.10546875 C-27.54589844 15.14253906 -28.41601562 14.17960937 -29.3125 13.1875 C-30.19550781 12.21167969 -31.07851563 11.23585938 -31.98828125 10.23046875 C-32.65214844 9.49441406 -33.31601562 8.75835937 -34 8 C-33.67 7.01 -33.34 6.02 -33 5 C-30.10429174 4.87677837 -28.64204648 4.90156676 -26 6 C-23.5538625 8.48422615 -21.42535336 11.07839093 -19.30859375 13.84765625 C-17.14151301 16.28273721 -17.14151301 16.28273721 -13.9140625 16.421875 C-9.82568027 15.82999125 -7.50085377 14.16461925 -5 11 C-3.08710375 7.42524375 -1.49140181 3.76809926 0 0 Z " fill="#1A1E26" transform="translate(605,487)"/>
<path d="M0 0 C13.18538713 -0.49291167 13.18538713 -0.49291167 16.91796875 1.765625 C19.09319144 4.10001032 19.68596701 4.87848931 19.625 8 C19.63789062 8.66 19.65078125 9.32 19.6640625 10 C18.5975857 13.21197719 16.85403219 14.27306218 14 16 C9.27267379 16.52005789 4.77279398 16.1784222 0 16 C0 10.72 0 5.44 0 0 Z " fill="#1D1F26" transform="translate(536,738)"/>
<path d="M0 0 C2.701875 -0.061875 5.40375 -0.12375 8.1875 -0.1875 C9.02949951 -0.21481201 9.87149902 -0.24212402 10.73901367 -0.27026367 C15.31952096 -0.32089807 18.28298447 0.01917007 22 3 C22.33 3.66 22.66 4.32 23 5 C21.68 5 20.36 5 19 5 C19 6.98 19 8.96 19 11 C18.525625 10.195625 18.05125 9.39125 17.5625 8.5625 C13.86901282 4.86901282 11.13416952 5.22650748 6 5 C6 8.3 6 11.6 6 15 C8.64 15 11.28 15 14 15 C14 15.66 14 16.32 14 17 C12.68 17 11.36 17 10 17 C10 17.66 10 18.32 10 19 C10.66 19.33 11.32 19.66 12 20 C9.69 20 7.38 20 5 20 C5 22.97 5 25.94 5 29 C3.35 29 1.7 29 0 29 C0 19.43 0 9.86 0 0 Z " fill="#44D2F5" transform="translate(393,802)"/>
<path d="M0 0 C2.87029869 1.79393668 4.49131638 2.98263276 6 6 C6.53676049 9.83400347 6.87196229 13.49693214 4.8828125 16.92578125 C3.5 18.5625 3.5 18.5625 1 21 C0.01 20.34 -0.98 19.68 -2 19 C-2 15 -2 15 -1.4375 11.3125 C-1.293125 10.219375 -1.14875 9.12625 -1 8 C-2.0595877 6.71677453 -2.0595877 6.71677453 -4.5 6.875 C-6.9404123 6.71677453 -6.9404123 6.71677453 -8 8 C-8.50135199 10.37221956 -8.50135199 10.37221956 -8 13 C-5.60140956 15.33630748 -5.60140956 15.33630748 -3 17 C-4.98 17 -6.96 17 -9 17 C-9 17.99 -9 18.98 -9 20 C-12.83968859 18.5435664 -14.31006462 16.71785783 -16 13 C-16.5229164 9.92786617 -16.63177382 8.00615831 -14.9453125 5.3203125 C-10.49265532 -0.18622804 -6.82381807 -0.88391426 0 0 Z " fill="#192226" transform="translate(555,369)"/>
<path d="M0 0 C0.33 0.99 0.66 1.98 1 3 C0.67 3.66 0.34 4.32 0 5 C0.99 4.67 1.98 4.34 3 4 C3.33 4.99 3.66 5.98 4 7 C3.28972656 7.62648438 2.57945312 8.25296875 1.84765625 8.8984375 C0.46900391 10.12433594 0.46900391 10.12433594 -0.9375 11.375 C-2.31228516 12.59316406 -2.31228516 12.59316406 -3.71484375 13.8359375 C-6.84066257 16.79611464 -7.12381178 18.3366488 -7.24609375 22.5 C-7.27896484 23.386875 -7.31183594 24.27375 -7.34570312 25.1875 C-7.40689702 27.0623767 -7.46418943 28.93738481 -7.51757812 30.8125 C-7.55173828 31.699375 -7.58589844 32.58625 -7.62109375 33.5 C-7.6461499 34.3146875 -7.67120605 35.129375 -7.69702148 35.96875 C-8 38 -8 38 -10 40 C-13.53571429 39.46428571 -13.53571429 39.46428571 -15 38 C-15.392915 34.49067117 -15.41852805 30.96568811 -15.5 27.4375 C-15.55414062 26.45974609 -15.60828125 25.48199219 -15.6640625 24.47460938 C-15.76599158 19.03960508 -15.37762734 15.75006573 -11.74609375 11.56640625 C-10.51991813 10.35438718 -9.27288898 9.16286307 -8 8 C-6.79537109 6.74703125 -6.79537109 6.74703125 -5.56640625 5.46875 C-4.90511719 4.8190625 -4.24382813 4.169375 -3.5625 3.5 C-2.88316406 2.8296875 -2.20382812 2.159375 -1.50390625 1.46875 C-1.00761719 0.9840625 -0.51132812 0.499375 0 0 Z M-3.625 6.375 C-5.21531408 7.89968321 -5.21531408 7.89968321 -5 10 C-3.00016466 9.20882096 -3.00016466 9.20882096 -1 8 C-0.67 7.01 -0.34 6.02 0 5 C-2.10031679 4.78468592 -2.10031679 4.78468592 -3.625 6.375 Z " fill="#19222A" transform="translate(568,420)"/>
<path d="M0 0 C7.92 0 15.84 0 24 0 C24 1.65 24 3.3 24 5 C21.03 5 18.06 5 15 5 C15 12.92 15 20.84 15 29 C13.02 29 11.04 29 9 29 C9 21.08 9 13.16 9 5 C6.03 5 3.06 5 0 5 C0 3.35 0 1.7 0 0 Z " fill="#3ECCEA" transform="translate(527,802)"/>
<path d="M0 0 C1.98 0 3.96 0 6 0 C6 7.92 6 15.84 6 24 C10.95 24 15.9 24 21 24 C21 25.65 21 27.3 21 29 C14.07 29 7.14 29 0 29 C0 19.43 0 9.86 0 0 Z " fill="#3FCBEB" transform="translate(486,802)"/>
<path d="M0 0 C3.06553525 0.89700428 5.42063268 2.13747918 8 4 C8.928125 4.639375 9.85625 5.27875 10.8125 5.9375 C14.00618796 8.9486915 15.8906586 11.35987897 16.1875 15.8125 C16.0946875 16.8953125 16.0946875 16.8953125 16 18 C14.35 18.33 12.7 18.66 11 19 C10.63648438 18.45730469 10.27296875 17.91460937 9.8984375 17.35546875 C9.39570313 16.64003906 8.89296875 15.92460937 8.375 15.1875 C7.64410156 14.12595703 7.64410156 14.12595703 6.8984375 13.04296875 C2.56212617 8.37652672 -2.22075328 7.60279466 -8.375 7.3125 C-9.62023437 7.24675781 -10.86546875 7.18101562 -12.1484375 7.11328125 C-13.08945312 7.07589844 -14.03046875 7.03851563 -15 7 C-15 6.34 -15 5.68 -15 5 C-14.34 4.67 -13.68 4.34 -13 4 C-15.475 3.01 -15.475 3.01 -18 2 C-12.74567529 -1.50288314 -6.11570191 -0.52292759 0 0 Z M-18 3 C-16 4 -16 4 -16 4 Z " fill="#1C202A" transform="translate(436,430)"/>
<path d="M0 0 C3.23356015 1.21258505 4.00856305 2.01284458 6 5 C6.54602034 8.39107371 6.54627924 11.60874176 6 15 C3.80977082 17.82424288 2.16982793 19.41508603 -1 21 C-6.90627482 21.68149325 -6.90627482 21.68149325 -9.79296875 19.8828125 C-11.25356733 18.65466073 -12.63405529 17.33262899 -14 16 C-13.67 15.34 -13.34 14.68 -13 14 C-10.69 14.66 -8.38 15.32 -6 16 C-6.515625 15.443125 -7.03125 14.88625 -7.5625 14.3125 C-9 12 -9 12 -8.8125 9.375 C-8 7 -8 7 -6 5 C-4.68 5 -3.36 5 -2 5 C-2 3.68 -2 2.36 -2 1 C-1.34 0.67 -0.68 0.34 0 0 Z " fill="#1C1D27" transform="translate(553,526)"/>
<path d="M0 0 C3.09322404 0.3344026 4.58887768 0.5595118 6.75 2.875 C9.74121016 7.96005728 9.66288705 13.27235797 9 19 C7.81573029 22.66091674 6.47520839 26.02974994 4 29 C1.46484375 29.71484375 1.46484375 29.71484375 -1 30 C-4.17452084 31.25797836 -4.17452084 31.25797836 -6 34 C-6.99 33.67 -7.98 33.34 -9 33 C-11.14255793 33.38932856 -11.14255793 33.38932856 -13 34 C-13 33.34 -13 32.68 -13 32 C-12.48050781 31.78085937 -11.96101563 31.56171875 -11.42578125 31.3359375 C-6.23385503 28.97509859 -3.28405391 26.67728891 0 22 C1.01702117 18.9489365 1.16582083 16.75800939 1.1875 13.5625 C1.20876953 12.14130859 1.20876953 12.14130859 1.23046875 10.69140625 C0.99409578 7.93105073 0.29332343 6.40338241 -1 4 C-0.625 1.75 -0.625 1.75 0 0 Z " fill="#1E202D" transform="translate(451,509)"/>
<path d="M0 0 C7.26 0 14.52 0 22 0 C22 1.65 22 3.3 22 5 C16.72 5 11.44 5 6 5 C5.814375 6.918125 5.814375 6.918125 5.625 8.875 C5.25 12.75 5.25 12.75 3 15 C2.53513282 18.12196336 2.53513282 18.12196336 2.375 21.625 C2.25125 23.72875 2.1275 25.8325 2 28 C8.93 28.33 15.86 28.66 23 29 C23 29.33 23 29.66 23 30 C15.41 30 7.82 30 0 30 C0 20.1 0 10.2 0 0 Z " fill="#3ABEDC" transform="translate(610,802)"/>
<path d="M0 0 C2.31 0 4.62 0 7 0 C7 9.9 7 19.8 7 30 C4.69 30 2.38 30 0 30 C0 20.1 0 10.2 0 0 Z " fill="#3BACC5" transform="translate(556,802)"/>
<path d="M0 0 C2.64 0 5.28 0 8 0 C8.95261487 4.76307437 9.08333357 9.1666528 9 14 C8.34 13.34 7.68 12.68 7 12 C6.67 17.94 6.34 23.88 6 30 C4.02 30 2.04 30 0 30 C0 20.1 0 10.2 0 0 Z " fill="#3DC4E3" transform="translate(570,802)"/>
<path d="M0 0 C2.20283309 2.4231164 3.01786678 4.03194556 2.95703125 7.328125 C2.71357621 9.57214536 2.40157476 11.77924321 2 14 C-1.98764147 15.05555215 -5.00933425 15.10380117 -9 14 C-11.375 12.4375 -11.375 12.4375 -13 10 C-13.58523376 7.03800057 -13.39325659 5.09689564 -13 2 C-9.13647601 -2.27747299 -4.93758931 -2.78530679 0 0 Z " fill="#1B2328" transform="translate(590,403)"/>
<path d="M0 0 C2.56269497 1.04109483 4.02610343 2.02610343 6 4 C6.22705078 6.43017578 6.22705078 6.43017578 6.1953125 9.4453125 C6.18564453 11.05986328 6.18564453 11.05986328 6.17578125 12.70703125 C6.15902344 13.83496094 6.14226562 14.96289062 6.125 16.125 C6.11597656 17.26066406 6.10695313 18.39632813 6.09765625 19.56640625 C6.07403098 22.37781299 6.04109013 25.18880298 6 28 C4.34385343 28.38218767 2.67542976 28.71395102 1 29 C-0.60957209 27.39042791 -0.18431988 25.60380558 -0.24609375 23.37890625 C-0.29540039 21.97608398 -0.29540039 21.97608398 -0.34570312 20.54492188 C-0.40677734 18.56065969 -0.46408455 16.57627789 -0.51757812 14.59179688 C-0.55173828 13.65529297 -0.58589844 12.71878906 -0.62109375 11.75390625 C-0.65867798 10.45948608 -0.65867798 10.45948608 -0.69702148 9.13891602 C-0.81152467 6.78784483 -0.81152467 6.78784483 -3 5 C-2.75 2.9375 -2.75 2.9375 -2 1 C-1.34 0.67 -0.68 0.34 0 0 Z " fill="#171922" transform="translate(465,431)"/>
<path d="M0 0 C-0.66 1.98 -1.32 3.96 -2 6 C-1.34 6.66 -0.68 7.32 0 8 C0.25 10.5 0.25 10.5 0 13 C-2 15 -2 15 -5 15.25 C-8 15 -8 15 -10 13 C-10.625 10.875 -10.625 10.875 -11 9 C-14.11332248 9.66868314 -14.11332248 9.66868314 -15.1875 12.0625 C-15.455625 12.701875 -15.72375 13.34125 -16 14 C-16.54618324 9.53950353 -16.24949476 6.67486639 -13.625 3.0625 C-9.70013199 -1.16428094 -5.40513101 -0.67297086 0 0 Z " fill="#1A252C" transform="translate(479,369)"/>
<path d="M0 0 C2.22825644 2.22825644 2.69239369 3.65761628 3.625 6.625 C4.01558594 7.85089844 4.01558594 7.85089844 4.4140625 9.1015625 C4.60742188 9.72804688 4.80078125 10.35453125 5 11 C2.03 11 -0.94 11 -4 11 C-4 11.66 -4 12.32 -4 13 C-4.66 13 -5.32 13 -6 13 C-6.12375 13.721875 -6.2475 14.44375 -6.375 15.1875 C-6.9904931 17.95721894 -7.88444374 20.3970354 -9 23 C-11.31 23 -13.62 23 -16 23 C-11.69506726 9.00896861 -11.69506726 9.00896861 -7.375 6.4375 C-5 6 -5 6 -3 6 C-2.01 4.02 -1.02 2.04 0 0 Z " fill="#3EC6E2" transform="translate(465,809)"/>
<path d="M0 0 C8.1277932 -0.0695816 16.25546147 -0.12285242 24.38347912 -0.15543652 C28.15785956 -0.17107711 31.93203586 -0.19228561 35.70629883 -0.22631836 C39.35026868 -0.25896976 42.99404247 -0.2768651 46.63814735 -0.28463173 C48.02679848 -0.29016492 49.41543916 -0.30097003 50.80400658 -0.31719017 C52.75228745 -0.33903856 54.70076658 -0.34022604 56.64916992 -0.34057617 C57.7572551 -0.34723801 58.86534027 -0.35389984 60.00700378 -0.36076355 C63.42443179 0.05115928 65.25745641 0.94905093 68 3 C71.24964548 7.87446822 70.33300751 13.60144418 70.31567383 19.30615234 C70.31251104 21.49236769 70.33598905 23.67723292 70.36132812 25.86328125 C70.36360094 27.25260246 70.3643047 28.64192731 70.36328125 30.03125 C70.36626221 31.29517578 70.36924316 32.55910156 70.37231445 33.86132812 C70 37 70 37 68.47729492 38.93554688 C67.9897876 39.28681641 67.50228027 39.63808594 67 40 C67 38.68 67 37.36 67 36 C67.66 36 68.32 36 69 36 C68.89171875 34.63681641 68.89171875 34.63681641 68.78125 33.24609375 C68.10867369 24.13828949 67.88340879 15.13297847 68 6 C66.68 5.34 65.36 4.68 64 4 C64 3.34 64 2.68 64 2 C62.86367378 2.00666183 62.86367378 2.00666183 61.70439148 2.01345825 C54.56800365 2.05351895 47.43167029 2.08397619 40.29519939 2.10362434 C36.62619419 2.1140652 32.95728184 2.1282298 29.28833008 2.15087891 C25.74812214 2.17259669 22.20800356 2.18456636 18.66773415 2.18975449 C16.65856095 2.19525273 14.64942374 2.21086735 12.64030457 2.22659302 C11.41926529 2.22674408 10.19822601 2.22689514 8.94018555 2.22705078 C7.32469063 2.23371262 7.32469063 2.23371262 5.67655945 2.24050903 C3 2 3 2 0 0 Z " fill="#36C4D8" transform="translate(352,322)"/>
<path d="M0 0 C2.375 1.5625 2.375 1.5625 4 4 C3.9375 7.625 3.9375 7.625 3 11 C-0.46923881 13.31282587 -1.92205575 13.42478586 -6 13 C-7.875 11.9375 -7.875 11.9375 -9 10 C-9.4375 6.5 -9.4375 6.5 -9 3 C-6.35893733 -0.03233122 -3.92985113 -0.68772395 0 0 Z " fill="#1A2028" transform="translate(382,344)"/>
<path d="M0 0 C3.375 0.875 3.375 0.875 5.375 2.875 C5.92521834 8.92740175 5.92521834 8.92740175 4.25 11.8125 C1.43987736 13.40490283 -0.45264724 13.32819325 -3.625 12.875 C-6.4162125 10.89177007 -7.45097224 9.74513879 -8.125 6.375 C-7.12928094 1.39640472 -5.01830468 -0.17304499 0 0 Z " fill="#171E24" transform="translate(401.625,344.125)"/>
<path d="M0 0 C2.375 1.5625 2.375 1.5625 4 4 C3.9375 7.625 3.9375 7.625 3 11 C-0.46923881 13.31282587 -1.92205575 13.42478586 -6 13 C-7.875 11.9375 -7.875 11.9375 -9 10 C-9.4375 6.5 -9.4375 6.5 -9 3 C-6.35893733 -0.03233122 -3.92985113 -0.68772395 0 0 Z " fill="#1B1F29" transform="translate(360,344)"/>
<path d="M0 0 C1.32 0.66 2.64 1.32 4 2 C3.50556396 2.33781494 3.01112793 2.67562988 2.50170898 3.02368164 C-0.90234628 5.78105622 -2.7560496 7.83631224 -3.67138672 12.20263672 C-3.91213066 15.96139784 -3.96981989 19.67128227 -3.9375 23.4375 C-3.95361328 24.74138672 -3.96972656 26.04527344 -3.98632812 27.38867188 C-4.02154626 30.59352173 -4.02513484 33.79514932 -4 37 C-4.66 37 -5.32 37 -6 37 C-6.33 28.09 -6.66 19.18 -7 10 C-7.99 10.66 -8.98 11.32 -10 12 C-10.3125 9.3125 -10.3125 9.3125 -10 6 C-7.5 3.125 -7.5 3.125 -5 1 C-4.01 1.33 -3.02 1.66 -2 2 C-1.34 1.34 -0.68 0.68 0 0 Z " fill="#1B232B" transform="translate(544,418)"/>
<path d="M0 0 C1.65 0 3.3 0 5 0 C5.40992188 0.83144531 5.81984375 1.66289062 6.2421875 2.51953125 C6.78101563 3.60621094 7.31984375 4.69289063 7.875 5.8125 C8.40867187 6.89144531 8.94234375 7.97039062 9.4921875 9.08203125 C10.97221139 12.07838265 10.97221139 12.07838265 13 15 C9.535 16.485 9.535 16.485 6 18 C4.79749842 15.75692972 3.6130838 13.5071209 2.4375 11.25 C2.09525391 10.61578125 1.75300781 9.9815625 1.40039062 9.328125 C-1.06382218 4.54904562 -1.06382218 4.54904562 -0.71484375 1.546875 C-0.47894531 1.03640625 -0.24304688 0.5259375 0 0 Z " fill="#201E2C" transform="translate(414,487)"/>
<path d="M0 0 C0.66 0 1.32 0 2 0 C3.98 5.28 5.96 10.56 8 16 C3.71 16 -0.58 16 -5 16 C-4.26282303 11.5769382 -3.60731663 8.61101389 -1.9375 4.625 C-1.57527344 3.75101563 -1.21304687 2.87703125 -0.83984375 1.9765625 C-0.56269531 1.32429687 -0.28554688 0.67203125 0 0 Z " fill="#1E2329" transform="translate(286,742)"/>
<path d="M0 0 C2.125 1.625 2.125 1.625 3.125 3.625 C1.805 3.625 0.485 3.625 -0.875 3.625 C-0.875 5.605 -0.875 7.585 -0.875 9.625 C-1.349375 8.820625 -1.82375 8.01625 -2.3125 7.1875 C-6.00598718 3.49401282 -8.74083048 3.85150748 -13.875 3.625 C-13.875 6.925 -13.875 10.225 -13.875 13.625 C-14.205 13.625 -14.535 13.625 -14.875 13.625 C-15.205 11.645 -15.535 9.665 -15.875 7.625 C-16.535 8.285 -17.195 8.945 -17.875 9.625 C-19.3533226 6.66835481 -18.93532783 3.88270263 -18.875 0.625 C-5.69309614 -2.72278511 -5.69309614 -2.72278511 0 0 Z " fill="#3DC4E6" transform="translate(412.875,803.375)"/>
<path d="M0 0 C1.423125 -0.061875 2.84625 -0.12375 4.3125 -0.1875 C5.51326172 -0.23970703 5.51326172 -0.23970703 6.73828125 -0.29296875 C9 0 9 0 10.7734375 1.3515625 C12.48891217 3.65707304 12.35928679 5.19756307 12 8 C10 10 10 10 7.6171875 10.1953125 C6.71226562 10.17210937 5.80734375 10.14890625 4.875 10.125 C2.461875 10.063125 2.461875 10.063125 0 10 C0 6.7 0 3.4 0 0 Z " fill="#191C20" transform="translate(399,807)"/>
<path d="M0 0 C0 0.99 0 1.98 0 3 C0.33 3 0.66 3 1 3 C1.66 3.33 2.32 3.66 3 4 C2.49935858 8.33889229 -0.21726171 10.81003171 -3 14 C-3.99 15.485 -3.99 15.485 -5 17 C-6.32 16.67 -7.64 16.34 -9 16 C-9.875 14 -9.875 14 -10 11 C-7.4442564 6.45449062 -4.25811708 2.98717582 0 0 Z " fill="#1C252C" transform="translate(582,433)"/>
<path d="M0 0 C1.23514929 2.22326872 2.01002294 4.05136756 2.5 6.5625 C2.89071327 9.24360926 2.89071327 9.24360926 5 12 C5.69313908 13.65583225 6.36474424 15.32110979 7 17 C0.98303301 16.76404051 0.98303301 16.76404051 -1.578125 14.7734375 C-3.62133544 12.48363269 -4.89737531 10.42076124 -5.625 7.4375 C-4.7293063 3.94429457 -2.66242655 2.32962323 0 0 Z " fill="#1B1C22" transform="translate(470,530)"/>
<path d="M0 0 C0.66 0 1.32 0 2 0 C4.66136365 3.16380398 7 6.4262147 7 10.625 C6.20438292 12.51459056 5.30620158 14.36091229 4.375 16.1875 C3.92125 17.115625 3.4675 18.04375 3 19 C3.33 19.66 3.66 20.32 4 21 C4.721875 20.38125 5.44375 19.7625 6.1875 19.125 C9.79778093 16.39723218 12.22943251 14.76392433 16.8125 15.375 C17.534375 15.58125 18.25625 15.7875 19 16 C18.44054687 16.0928125 17.88109375 16.185625 17.3046875 16.28125 C13.53289633 17.45753742 10.74198394 20.02807498 7.6328125 22.40625 C4.70313619 24.17970391 2.38097425 24.64514556 -1 25 C-0.54554036 23.58208592 -0.08625056 22.16571954 0.375 20.75 C0.75785156 19.56664062 0.75785156 19.56664062 1.1484375 18.359375 C2 16 2 16 3.11328125 13.85546875 C4.38171595 11.20125517 3.87770102 9.768134 3 7 C2.02308143 5.31970006 1.02611949 3.65071396 0 2 C0 1.34 0 0.68 0 0 Z " fill="#46B7BE" transform="translate(631,406)"/>
<path d="M0 0 C0.23225282 8.58367701 -0.65833976 17.03386453 -1.5 25.5625 C-1.64492258 27.0631133 -1.78945701 28.56376414 -1.93359375 30.06445312 C-2.28458797 33.71007913 -2.64083432 37.35516889 -3 41 C-3.33 41 -3.66 41 -4 41 C-4.17596015 24.14692798 -4.17596015 24.14692798 -3.22265625 16.359375 C-2.80291217 11.91156057 -2.94277812 7.46330701 -3 3 C-6.96 2.67 -10.92 2.34 -15 2 C-15 1.67 -15 1.34 -15 1 C-9.9752761 0.37470103 -5.07471573 -0.13012092 0 0 Z " fill="#8DE085" transform="translate(666,274)"/>
<path d="M0 0 C4.29 0 8.58 0 13 0 C13 1.98 13 3.96 13 6 C8.71 6 4.42 6 0 6 C0 4.02 0 2.04 0 0 Z " fill="#3BB2CE" transform="translate(510,816)"/>
<path d="M0 0 C0.33 0 0.66 0 1 0 C1 8.91 1 17.82 1 27 C0.01 27.33 -0.98 27.66 -2 28 C-2.0580966 24.0833957 -2.09362893 20.16690237 -2.125 16.25 C-2.14175781 15.13882813 -2.15851562 14.02765625 -2.17578125 12.8828125 C-2.18222656 11.81289063 -2.18867187 10.74296875 -2.1953125 9.640625 C-2.20578613 8.65610352 -2.21625977 7.67158203 -2.22705078 6.65722656 C-1.99489618 3.94026889 -1.39036273 2.31887487 0 0 Z " fill="#41CEEB" transform="translate(560,802)"/>
<path d="M0 0 C2 2 2 2 2.25 4.5 C2 7 2 7 0 9 C-3 9.25 -3 9.25 -6 9 C-6.66 8.34 -7.32 7.68 -8 7 C-7.75 3.9375 -7.75 3.9375 -7 1 C-4.48718205 -0.25640898 -2.78302919 -0.20872719 0 0 Z " fill="#3FAADE" transform="translate(477,375)"/>
<path d="M0 0 C2.375 0.75 2.375 0.75 3.375 1.75 C3.5625 4.6875 3.5625 4.6875 3.375 7.75 C1.375 9.75 1.375 9.75 -1.125 10 C-3.625 9.75 -3.625 9.75 -5.625 7.75 C-5.99296448 4.87987704 -6.00009409 3.34225382 -4.4375 0.875 C-2.625 -0.25 -2.625 -0.25 0 0 Z " fill="#6290E1" transform="translate(443.625,406.25)"/>
<path d="M0 0 C1 1 1 1 1.1875 3.9375 C1 7 1 7 -1 9 C-4.29714793 8.67028521 -5.6226839 8.3773161 -8 6 C-7.75 2.9375 -7.75 2.9375 -7 0 C-4.31633121 -1.3418344 -2.84719317 -0.73004953 0 0 Z " fill="#896CE2" transform="translate(479,532)"/>
<path d="M0 0 C0.33 0.99 0.66 1.98 1 3 C0.67 3.66 0.34 4.32 0 5 C0.99 4.67 1.98 4.34 3 4 C3.33 4.99 3.66 5.98 4 7 C2.76446724 8.20254524 1.51097661 9.38666232 0.25 10.5625 C-0.79414062 11.55443359 -0.79414062 11.55443359 -1.859375 12.56640625 C-4 14 -4 14 -6.265625 13.71484375 C-6.83796875 13.47894531 -7.4103125 13.24304688 -8 13 C-8.36795695 9.7171341 -8.3231932 8.41336988 -6.25 5.76171875 C-5.13625 4.73498047 -5.13625 4.73498047 -4 3.6875 C-3.2575 2.99011719 -2.515 2.29273438 -1.75 1.57421875 C-1.1725 1.05472656 -0.595 0.53523438 0 0 Z M-3.625 6.375 C-5.21531408 7.89968321 -5.21531408 7.89968321 -5 10 C-3.00016466 9.20882096 -3.00016466 9.20882096 -1 8 C-0.67 7.01 -0.34 6.02 0 5 C-2.10031679 4.78468592 -2.10031679 4.78468592 -3.625 6.375 Z " fill="#1D2931" transform="translate(568,420)"/>
<path d="M0 0 C1.010625 0.0825 2.02125 0.165 3.0625 0.25 C5.0625 3.25 5.0625 3.25 4.8125 5.3125 C4.0625 7.25 4.0625 7.25 2.0625 9.25 C-0.4375 9.5625 -0.4375 9.5625 -2.9375 9.25 C-4.9375 6.25 -4.9375 6.25 -4.625 3.625 C-3.63837192 0.21664846 -3.64560971 0.31026466 0 0 Z " fill="#3FBCE1" transform="translate(581.9375,406.75)"/>
<path d="M0 0 C4.55555556 0.55555556 4.55555556 0.55555556 6 2 C6.1875 4.9375 6.1875 4.9375 6 8 C5.34 8.66 4.68 9.32 4 10 C0.70285207 9.67028521 -0.6226839 9.3773161 -3 7 C-2.67028521 3.70285207 -2.3773161 2.3773161 0 0 Z " fill="#707EDA" transform="translate(547,531)"/>
<path d="M0 0 C0.33 0 0.66 0 1 0 C3.26028807 19.86646091 3.26028807 19.86646091 -1.89453125 26.35546875 C-4.99133491 29.60390336 -8.37582976 32.36152441 -12 35 C-12.495 33.515 -12.495 33.515 -13 32 C-12.34 32 -11.68 32 -11 32 C-10.87625 31.38125 -10.7525 30.7625 -10.625 30.125 C-10 28 -10 28 -8 26 C-7.01 26 -6.02 26 -5 26 C-5 25.34 -5 24.68 -5 24 C-4.34 24 -3.68 24 -3 24 C-3 23.34 -3 22.68 -3 22 C-2.34 22 -1.68 22 -1 22 C-1.01160156 21.33355469 -1.02320313 20.66710937 -1.03515625 19.98046875 C-1.10097366 13.25769055 -0.72383639 6.682561 0 0 Z " fill="#3CAFD9" transform="translate(546,390)"/>
<path d="M0 0 C0.33 0.99 0.66 1.98 1 3 C0.35289062 3.45632813 -0.29421875 3.91265625 -0.9609375 4.3828125 C-4.03917527 8.33380734 -3.66017223 12.00012823 -3.625 16.875 C-3.65722656 17.76058594 -3.68945312 18.64617187 -3.72265625 19.55859375 C-3.74197453 24.5630251 -3.74197453 24.5630251 -1.62011719 28.96972656 C0.17948108 30.83560597 0.17948108 30.83560597 3 33 C2.67 33.66 2.34 34.32 2 35 C-1.6685511 32.8791189 -3.89487214 30.69424824 -6 27 C-6.69462846 23.40874873 -6.80504964 19.90160547 -6.8125 16.25 C-6.82345703 15.31454346 -6.83441406 14.37908691 -6.84570312 13.4152832 C-6.65607086 6.66328043 -6.65607086 6.66328043 -3.51171875 3.484375 C-2.68285156 2.99453125 -1.85398437 2.5046875 -1 2 C-0.67 1.34 -0.34 0.68 0 0 Z " fill="#43A1D4" transform="translate(483,385)"/>
<path d="M0 0 C2.5 0.25 2.5 0.25 4.5 2.25 C4.75 4.75 4.75 4.75 4.5 7.25 C2.5 9.25 2.5 9.25 0 9.5 C-2.5 9.25 -2.5 9.25 -4.5 7.25 C-4.75 4.75 -4.75 4.75 -4.5 2.25 C-2.5 0.25 -2.5 0.25 0 0 Z " fill="#3BC6E5" transform="translate(550.5,374.75)"/>
<path d="M0 0 C5.56818182 0.56818182 5.56818182 0.56818182 7 2 C7.1875 4.4375 7.1875 4.4375 7 7 C5 9 5 9 2.5 9.25 C0 9 0 9 -2 7 C-2.25 4.5 -2.25 4.5 -2 2 C-1.34 1.34 -0.68 0.68 0 0 Z " fill="#4FA8E3" transform="translate(590,462)"/>
<path d="M0 0 C3.29714793 0.32971479 4.6226839 0.6226839 7 3 C6.44444444 7.55555556 6.44444444 7.55555556 5 9 C2 9.125 2 9.125 -1 9 C-2 8 -2 8 -2.1875 5.0625 C-2 2 -2 2 0 0 Z " fill="#7D81E1" transform="translate(430,462)"/>
<path d="M0 0 C0 0.33 0 0.66 0 1 C-0.845625 1.13535156 -1.69125 1.27070313 -2.5625 1.41015625 C-11.30622939 3.06947762 -17.18689753 5.41203001 -22.30078125 12.90625 C-23.26813247 14.56657646 -24.14064532 16.28129064 -25 18 C-25.66 18.99 -26.32 19.98 -27 21 C-26.43503796 13.9379745 -24.27166067 10.12350889 -19.125 5.3125 C-12.53712301 0.43747103 -8.03055287 -0.42850776 0 0 Z " fill="#32CCD5" transform="translate(545,333)"/>
<path d="M0 0 C0 3 0 3 -1.28173828 4.59057617 C-2.16708252 5.4332605 -2.16708252 5.4332605 -3.0703125 6.29296875 C-3.72 6.92396484 -4.3696875 7.55496094 -5.0390625 8.20507812 C-5.72742188 8.85927734 -6.41578125 9.51347656 -7.125 10.1875 C-12.27420594 15.10219753 -17.06885525 20.02914531 -21 26 C-21 26.33 -21 26.66 -21 27 C-22.65 27 -24.3 27 -26 27 C-26 26.34 -26 25.68 -26 25 C-24.58398438 23.60522461 -24.58398438 23.60522461 -22.59375 21.96484375 C-17.63418911 17.74768627 -13.07671635 13.18766693 -8.5 8.5625 C-7.26636719 7.32209961 -7.26636719 7.32209961 -6.0078125 6.05664062 C-4.00287887 4.04005041 -2.00033747 2.02114764 0 0 Z " fill="#59D3CB" transform="translate(600,317)"/>
<path d="M0 0 C5.28 0 10.56 0 16 0 C16 1.32 16 2.64 16 4 C8.74 4 1.48 4 -6 4 C-6 3.67 -6 3.34 -6 3 C-2.7 3 0.6 3 4 3 C4 2.34 4 1.68 4 1 C2.68 0.67 1.36 0.34 0 0 Z " fill="#47D9F8" transform="translate(430,827)"/>
<path d="M0 0 C2.6486859 3.19668988 4.93992341 6.39486597 7 10 C1.71621441 10.43309718 1.71621441 10.43309718 -1 10 C-3.0625 7.75 -3.0625 7.75 -4 5 C-3.875 2.75 -3.875 2.75 -3 1 C-2.01 0.67 -1.02 0.34 0 0 Z " fill="#41C8E8" transform="translate(411,821)"/>
<path d="M0 0 C4.35535069 1.16142685 6.64619703 2.07699505 9 6 C8.34 6 7.68 6 7 6 C7.33 6.99 7.66 7.98 8 9 C7.07796291 11.36522558 6.08301035 13.70401807 5 16 C4.34 15.67 3.68 15.34 3 15 C3.061875 13.96875 3.12375 12.9375 3.1875 11.875 C2.98752674 7.74221929 1.98910045 5.56380498 0 2 C0 1.34 0 0.68 0 0 Z M-1 16 C3 17 3 17 3 17 Z " fill="#39BDDE" transform="translate(619,440)"/>
<path d="M0 0 C-0.64544429 3.48539917 -2.10134397 6.02819057 -4 9 C-4.99 8.67 -5.98 8.34 -7 8 C-7.33 8.66 -7.66 9.32 -8 10 C-8.99 10.33 -9.98 10.66 -11 11 C-11.33 11.66 -11.66 12.32 -12 13 C-12.66 12.67 -13.32 12.34 -14 12 C-5.52427184 0 -5.52427184 0 0 0 Z " fill="#737DDF" transform="translate(405,440)"/>
<path d="M0 0 C2.22825644 2.22825644 2.69239369 3.65761628 3.625 6.625 C3.88539063 7.44226563 4.14578125 8.25953125 4.4140625 9.1015625 C4.60742188 9.72804688 4.80078125 10.35453125 5 11 C2.03 11 -0.94 11 -4 11 C-3.5247412 9.35303396 -3.04468109 7.70745272 -2.5625 6.0625 C-2.29566406 5.14597656 -2.02882813 4.22945312 -1.75390625 3.28515625 C-1 1 -1 1 0 0 Z " fill="#1E3038" transform="translate(465,809)"/>
<path d="M0 0 C6.03906928 1.59857716 9.06523114 5.94604176 12.26953125 11.00390625 C15.65448122 17.49870424 15.39963743 23.81762732 15 31 C14.67 31 14.34 31 14 31 C13.91363281 30.01 13.82726562 29.02 13.73828125 28 C12.77562719 18.48189351 11.00627528 11.78385385 4 5 C2.64748503 3.68612831 1.31054623 2.35573748 0 1 C0 0.67 0 0.34 0 0 Z " fill="#31C5C4" transform="translate(586,361)"/>
<path d="M0 0 C2.37011043 8.06196655 -0.5510815 18.18229863 -3 26 C-4.6015625 28.38671875 -4.6015625 28.38671875 -6 30 C-5.3324757 23.9714212 -4.27708705 18.11484968 -3 12.1875 C-2.82210938 11.34251953 -2.64421875 10.49753906 -2.4609375 9.62695312 C-1.76223602 6.34462044 -1.06250527 3.1875158 0 0 Z " fill="#383B3F" transform="translate(286,364)"/>
<path d="M0 0 C0.66 0.33 1.32 0.66 2 1 C-3.12221113 4.61988664 -7.76455855 6.7521068 -13.8984375 8.12890625 C-16.17899684 8.83399527 -16.17899684 8.83399527 -17.2890625 11.08984375 C-17.52367187 11.72019531 -17.75828125 12.35054687 -18 13 C-15.36 13.33 -12.72 13.66 -10 14 C-10 14.33 -10 14.66 -10 15 C-13.63 15 -17.26 15 -21 15 C-20.5 11.6875 -20.5 11.6875 -19 8 C-16.22674763 6.66289618 -13.91413815 5.84015515 -11 5 C-9.17996205 4.31126622 -7.36733893 3.60263234 -5.5625 2.875 C-4.71816406 2.54242187 -3.87382813 2.20984375 -3.00390625 1.8671875 C-1.0410114 1.163717 -1.0410114 1.163717 0 0 Z " fill="#8867DA" transform="translate(616,547)"/>
<path d="M0 0 C1.98 0 3.96 0 6 0 C6 9.57 6 19.14 6 29 C4.35 29 2.7 29 1 29 C1 26.69 1 24.38 1 22 C1.33 22 1.66 22 2 22 C2 23.65 2 25.3 2 27 C2.66 26.67 3.32 26.34 4 26 C4.33 17.75 4.66 9.5 5 1 C3.35 1 1.7 1 0 1 C0 0.67 0 0.34 0 0 Z " fill="#46DDF9" transform="translate(596,802)"/>
<path d="M0 0 C4.875 0.875 4.875 0.875 6 2 C6.3125 4.375 6.3125 4.375 6 7 C4 8.8125 4 8.8125 2 10 C-1.07692308 4.58461538 -1.07692308 4.58461538 -0.6875 1.625 C-0.460625 1.08875 -0.23375 0.5525 0 0 Z " fill="#191B25" transform="translate(451,509)"/>
<path d="M0 0 C2.97 0 5.94 0 9 0 C8.01 0.495 8.01 0.495 7 1 C7 1.99 7 2.98 7 4 C7.99 4.33 8.98 4.66 10 5 C6.04 5 2.08 5 -2 5 C-2 4.01 -2 3.02 -2 2 C-1.34 2 -0.68 2 0 2 C0 1.34 0 0.68 0 0 Z " fill="#47D4F3" transform="translate(461,820)"/>
<path d="M0 0 C0 3 0 3 -1.75 5.04296875 C-2.4925 5.75066406 -3.235 6.45835937 -4 7.1875 C-4.7425 7.90292969 -5.485 8.61835938 -6.25 9.35546875 C-6.8275 9.89816406 -7.405 10.44085938 -8 11 C-7.01 11.66 -6.02 12.32 -5 13 C-10.445 14.485 -10.445 14.485 -16 16 C-12.63699159 11.69114547 -9.03918174 8.14405459 -4.8671875 4.61328125 C-3.16296232 3.14080217 -1.56975784 1.61363306 0 0 Z " fill="#36BCEF" transform="translate(543,308)"/>
<path d="M0 0 C0.66 0.33 1.32 0.66 2 1 C1.24074219 1.70125 0.48148437 2.4025 -0.30078125 3.125 C-5.73042047 8.26404137 -10.16546666 12.5207487 -12 20 C-12.66 19.67 -13.32 19.34 -14 19 C-11.88083783 11.3710162 -7.63220714 6.48258493 -2 1 C-1.34 0.67 -0.68 0.34 0 0 Z " fill="#3DBADF" transform="translate(468,336)"/>
<path d="M0 0 C0.66 0.33 1.32 0.66 2 1 C1.01 1.33 0.02 1.66 -1 2 C-1 2.66 -1 3.32 -1 4 C-1.680625 4.37125 -2.36125 4.7425 -3.0625 5.125 C-7.16400033 7.74297893 -9.92519879 11.26947749 -13 15 C-13.33 14.34 -13.66 13.68 -14 13 C-10.64443879 7.12776787 -6.07818544 3.03909272 0 0 Z " fill="#42ABDC" transform="translate(441,358)"/>
<path d="M0 0 C3.09935806 3.09935806 4.09200265 5.17719585 5.6875 9.1875 C6.12449219 10.27417969 6.56148437 11.36085938 7.01171875 12.48046875 C7.33785156 13.31191406 7.66398438 14.14335938 8 15 C7.34 15 6.68 15 6 15 C5.34 13.02 4.68 11.04 4 9 C3.34 9 2.68 9 2 9 C1.67 11.97 1.34 14.94 1 18 C0.67 18 0.34 18 0 18 C0 12.06 0 6.12 0 0 Z " fill="#23343A" transform="translate(576,813)"/>
<path d="M0 0 C0.33 0 0.66 0 1 0 C1.70542917 8.24568314 0.51417117 14.00987433 -4 21 C-4.66 21.66 -5.32 22.32 -6 23 C-8.125 22.625 -8.125 22.625 -10 22 C-9.236875 21.443125 -8.47375 20.88625 -7.6875 20.3125 C-2.912102 16.20343661 -1.62228984 12.35436106 -0.8125 6.1875 C-0.65394531 5.02605469 -0.49539063 3.86460937 -0.33203125 2.66796875 C-0.22246094 1.78753906 -0.11289062 0.90710938 0 0 Z " fill="#2FBACD" transform="translate(621,412)"/>
<path d="M0 0 C2.4375 1 2.4375 1 4 2 C3.67 2.66 3.34 3.32 3 4 C2.67 3.67 2.34 3.34 2 3 C-1.40093799 2.50245537 -4.6075876 2.4258184 -8 3 C-10.37251148 4.76850053 -11.36608446 6.44700697 -13 9 C-13.66 9.66 -14.32 10.32 -15 11 C-14.58534283 6.16233301 -12.5801385 4.14353624 -9 1 C-5.97562661 -0.5121867 -3.33758466 -0.17263369 0 0 Z " fill="#39A3CD" transform="translate(477,367)"/>
<path d="M0 0 C0 0.33 0 0.66 0 1 C-1.65 1 -3.3 1 -5 1 C-5.226875 1.5775 -5.45375 2.155 -5.6875 2.75 C-7.33038023 5.5663661 -9.39533227 7.08077114 -12 9 C-12.8125 7.3125 -12.8125 7.3125 -13 5 C-9.15306095 -0.46017156 -6.19783697 -0.52524042 0 0 Z " fill="#15181E" transform="translate(477,369)"/>
<path d="M0 0 C0.99 0.33 1.98 0.66 3 1 C1.88745117 2.48168945 1.88745117 2.48168945 0 4 C-2.8190918 4.34057617 -2.8190918 4.34057617 -6.19921875 4.29296875 C-7.40771484 4.28330078 -8.61621094 4.27363281 -9.86132812 4.26367188 C-11.12396484 4.23853516 -12.38660156 4.21339844 -13.6875 4.1875 C-15.59885742 4.16719727 -15.59885742 4.16719727 -17.54882812 4.14648438 C-20.69964057 4.11108199 -23.84961045 4.0616979 -27 4 C-27 3.67 -27 3.34 -27 3 C-25.87972412 2.970271 -25.87972412 2.970271 -24.73681641 2.93994141 C-21.36584395 2.84491789 -17.99551071 2.73514741 -14.625 2.625 C-13.449375 2.5940625 -12.27375 2.563125 -11.0625 2.53125 C-9.94101562 2.49257813 -8.81953125 2.45390625 -7.6640625 2.4140625 C-6.62717285 2.3826416 -5.5902832 2.3512207 -4.52197266 2.31884766 C-1.83190165 2.24045528 -1.83190165 2.24045528 0 0 Z " fill="#15161D" transform="translate(570,482)"/>
<path d="M0 0 C0.33 0 0.66 0 1 0 C1 5.28 1 10.56 1 16 C0.01 16.33 -0.98 16.66 -2 17 C-2.35412344 18.32796291 -2.68521554 19.66216607 -3 21 C-4.5625 22.75 -4.5625 22.75 -6 24 C-6.66 23.67 -7.32 23.34 -8 23 C-7.1028125 21.9790625 -7.1028125 21.9790625 -6.1875 20.9375 C-1.18159813 14.21528891 -0.43017953 8.20307858 0 0 Z " fill="#846DE3" transform="translate(460,517)"/>
<path d="M0 0 C0.99 0.33 1.98 0.66 3 1 C2.67 1.66 2.34 2.32 2 3 C1.84530633 5.17674783 1.74997894 7.3578348 1.68359375 9.5390625 C1.64169922 10.84101563 1.59980469 12.14296875 1.55664062 13.484375 C1.51682701 14.86458045 1.47711478 16.24478883 1.4375 17.625 C1.39430593 19.01303415 1.35069135 20.40105528 1.30664062 21.7890625 C1.20028 25.19260256 1.09825286 28.59621778 1 32 C0.67 32 0.34 32 0 32 C0 21.44 0 10.88 0 0 Z " fill="#15171A" transform="translate(534,471)"/>
<path d="M0 0 C3.3 0 6.6 0 10 0 C8.68 0.33 7.36 0.66 6 1 C6.33 1.763125 6.66 2.52625 7 3.3125 C8 6 8 6 8 9 C2.25 4.5 2.25 4.5 0 0 Z " fill="#7ED885" transform="translate(619,279)"/>
<path d="M0 0 C1.65 0 3.3 0 5 0 C5.33 1.32 5.66 2.64 6 4 C0.72 4 -4.56 4 -10 4 C-10 3.67 -10 3.34 -10 3 C-6.7 3 -3.4 3 0 3 C0 2.01 0 1.02 0 0 Z " fill="#44D5F7" transform="translate(500,827)"/>
<path d="M0 0 C6.48208955 0.48615672 11.77458569 3.42686471 16 8.3125 C16.33 8.869375 16.66 9.42625 17 10 C16.67 10.66 16.34 11.32 16 12 C13.53834681 10.08538085 11.2261697 8.24878667 9.125 5.9375 C6.30594541 3.36718552 3.5524897 2.36634219 0 1 C0 0.67 0 0.34 0 0 Z " fill="#35D7DB" transform="translate(601,393)"/>
<path d="M0 0 C0 2.97 0 5.94 0 9 C-2 6 -2 6 -3 3 C-6.96 2.67 -10.92 2.34 -15 2 C-15 1.67 -15 1.34 -15 1 C-9.9752761 0.37470103 -5.07471573 -0.13012092 0 0 Z " fill="#7BBE71" transform="translate(666,274)"/>
<path d="M0 0 C0.89203125 0.01804687 1.7840625 0.03609375 2.703125 0.0546875 C3.71632813 0.08949219 3.71632813 0.08949219 4.75 0.125 C4.75 0.455 4.75 0.785 4.75 1.125 C3.84636719 1.30675781 2.94273437 1.48851562 2.01171875 1.67578125 C0.83222656 1.92714844 -0.34726562 2.17851562 -1.5625 2.4375 C-2.73425781 2.68113281 -3.90601563 2.92476563 -5.11328125 3.17578125 C-8.13082736 4.08893655 -9.35580785 4.68374874 -11.25 7.125 C-11.91 6.795 -12.57 6.465 -13.25 6.125 C-9.05465113 1.62998336 -6.21371741 -0.16351888 0 0 Z " fill="#34D9D0" transform="translate(540.25,332.875)"/>
<path d="M0 0 C0.33 0.99 0.66 1.98 1 3 C3.01508358 3.73323796 3.01508358 3.73323796 5 4 C3.46126823 7.71860179 2.52488612 8.35633541 -1 11 C-0.67 7.37 -0.34 3.74 0 0 Z " fill="#1B3037" transform="translate(614,293)"/>
<path d="M0 0 C0.33 0.66 0.66 1.32 1 2 C-0.33135812 5.86093856 -3.0880704 8.24132985 -6 11 C-6.99 10.67 -7.98 10.34 -9 10 C-6.03 6.7 -3.06 3.4 0 0 Z " fill="#7C6FE0" transform="translate(448,500)"/>
<path d="M0 0 C2.475 0.495 2.475 0.495 5 1 C5.66 5.62 6.32 10.24 7 15 C6.01 15.33 5.02 15.66 4 16 C3.96261719 15.01257813 3.92523437 14.02515625 3.88671875 13.0078125 C3.82097656 11.72648438 3.75523437 10.44515625 3.6875 9.125 C3.62949219 7.84882812 3.57148437 6.57265625 3.51171875 5.2578125 C3.34285156 4.18273437 3.17398438 3.10765625 3 2 C2.01 1.34 1.02 0.68 0 0 Z " fill="#966AEA" transform="translate(616,561)"/>
<path d="M0 0 C-1.299375 0.61875 -1.299375 0.61875 -2.625 1.25 C-6.04956847 2.93806156 -6.04956847 2.93806156 -9.1875 5.1875 C-12 7 -12 7 -15 7 C-13.92130607 6.03644756 -12.83681257 5.07938583 -11.75 4.125 C-10.84507812 3.32449219 -10.84507812 3.32449219 -9.921875 2.5078125 C-6.44209619 -0.22225786 -4.30440492 -1.53728747 0 0 Z " fill="#5393D7" transform="translate(423,394)"/>
<path d="M0 0 C0.66 0.33 1.32 0.66 2 1 C1.43410156 1.31453125 0.86820312 1.6290625 0.28515625 1.953125 C-0.44832031 2.38109375 -1.18179687 2.8090625 -1.9375 3.25 C-3.03384766 3.87648438 -3.03384766 3.87648438 -4.15234375 4.515625 C-6.31857318 6.25593617 -6.63594751 7.29561004 -7 10 C-7.66 8.02 -8.32 6.04 -9 4 C-7.54618103 3.30300448 -6.08677047 2.61766134 -4.625 1.9375 C-3.40683594 1.36322266 -3.40683594 1.36322266 -2.1640625 0.77734375 C-1.44992187 0.52082031 -0.73578125 0.26429688 0 0 Z " fill="#8E5FE0" transform="translate(446,545)"/>
<path d="M0 0 C0.66 1.32 1.32 2.64 2 4 C0.71937515 5.7074998 -0.61767557 7.37373596 -2 9 C-2.66 9 -3.32 9 -4 9 C-2.25 2.25 -2.25 2.25 0 0 Z " fill="#1E242E" transform="translate(569,509)"/>
<path d="M0 0 C0 3.6952982 -0.72136847 5.11373339 -3 8 C-6.1875 8.8125 -6.1875 8.8125 -9 9 C-8.06725891 7.87105124 -7.12859878 6.74699124 -6.1875 5.625 C-5.66542969 4.99851562 -5.14335938 4.37203125 -4.60546875 3.7265625 C-3 2 -3 2 0 0 Z " fill="#1D2733" transform="translate(580,473)"/>
<path d="M0 0 C0 0.66 0 1.32 0 2 C-0.99 2.495 -0.99 2.495 -2 3 C-2 3.66 -2 4.32 -2 5 C-4.3125 5.25 -4.3125 5.25 -7 5 C-8.8125 3 -8.8125 3 -10 1 C-6.78548731 -0.60725635 -3.56387464 -0.05748185 0 0 Z " fill="#272637" transform="translate(436,470)"/>
<path d="M0 0 C0.33 0 0.66 0 1 0 C1.22281874 1.91503674 1.42771076 3.83216506 1.625 5.75 C1.74101563 6.81734375 1.85703125 7.8846875 1.9765625 8.984375 C2.00029475 12.03792399 1.61420985 13.46162421 0 16 C-0.33 16 -0.66 16 -1 16 C-1.09688221 10.55306686 -1.12862175 5.36095333 0 0 Z " fill="#5E6063" transform="translate(751,434)"/>
<path d="M0 0 C0.33 0.99 0.66 1.98 1 3 C-1.57784846 5.64752004 -3.91648098 7.94432065 -7 10 C-7 7 -7 7 -5.46875 5.17578125 C-4.8190625 4.56089844 -4.169375 3.94601562 -3.5 3.3125 C-2.8503125 2.68988281 -2.200625 2.06726563 -1.53125 1.42578125 C-0.77328125 0.72001953 -0.77328125 0.72001953 0 0 Z " fill="#1F2F3B" transform="translate(568,420)"/>
<path d="M0 0 C0.33 0.99 0.66 1.98 1 3 C-0.91540896 6.83081791 -2.70032335 10.19527484 -6 13 C-6.66 12.67 -7.32 12.34 -8 12 C-7.4225 11.319375 -6.845 10.63875 -6.25 9.9375 C-3.80164486 6.74103635 -1.93549485 3.52536562 0 0 Z " fill="#896CE7" transform="translate(452,525)"/>
<path d="M0 0 C1.09658936 3.28976808 0.79953138 4.71303767 0 8 C0.99 8.66 1.98 9.32 3 10 C3 10.66 3 11.32 3 12 C1.35 11.67 -0.3 11.34 -2 11 C-2.28571429 3.57142857 -2.28571429 3.57142857 0 0 Z " fill="#1C222E" transform="translate(403,444)"/>
<path d="M0 0 C-0.66 1.32 -1.32 2.64 -2 4 C-2.66 4 -3.32 4 -4 4 C-4.433125 5.2065625 -4.433125 5.2065625 -4.875 6.4375 C-6 9 -6 9 -8 10 C-8.33 9.01 -8.66 8.02 -9 7 C-7.88121617 5.82737096 -6.75476949 4.66204862 -5.625 3.5 C-4.68527344 2.52546875 -4.68527344 2.52546875 -3.7265625 1.53125 C-2 0 -2 0 0 0 Z " fill="#39A5D3" transform="translate(549,420)"/>
<path d="M0 0 C2 1.3125 2 1.3125 4 3 C4 3.99 4 4.98 4 6 C2.68 5.34 1.36 4.68 0 4 C0 2.68 0 1.36 0 0 Z M5 1 C6.65 1.33 8.3 1.66 10 2 C10 2.33 10 2.66 10 3 C8.02 3 6.04 3 4 3 C4.33 2.34 4.66 1.68 5 1 Z " fill="#141618" transform="translate(542,383)"/>
<path d="M0 0 C2.64525803 0.95523207 4.81123085 1.85699307 7.0625 3.5625 C9.07687729 5.05703799 10.55493989 5.56338212 13 6 C12.34 6.66 11.68 7.32 11 8 C7.6316417 7.66594794 5.73223936 6.20643499 3.25 4 C2.63640625 3.46375 2.0228125 2.9275 1.390625 2.375 C0.93171875 1.92125 0.4728125 1.4675 0 1 C0 0.67 0 0.34 0 0 Z " fill="#53BDBE" transform="translate(593,350)"/>
<path d="M0 0 C0.33 0.99 0.66 1.98 1 3 C0.34 3.5775 -0.32 4.155 -1 4.75 C-3.44290923 6.99653977 -3.44290923 6.99653977 -3 11 C-3.66 11 -4.32 11 -5 11 C-5.68359375 9.234375 -5.68359375 9.234375 -6 7 C-4.78515625 5.078125 -4.78515625 5.078125 -3.0625 3.25 C-2.49660156 2.63640625 -1.93070312 2.0228125 -1.34765625 1.390625 C-0.90292969 0.93171875 -0.45820313 0.4728125 0 0 Z " fill="#7874E5" transform="translate(490,520)"/>
<path d="M0 0 C0.33 0 0.66 0 1 0 C1.12117187 0.71027344 1.24234375 1.42054688 1.3671875 2.15234375 C1.53476562 3.07144531 1.70234375 3.99054687 1.875 4.9375 C2.03742187 5.85402344 2.19984375 6.77054688 2.3671875 7.71484375 C2.57601562 8.46894531 2.78484375 9.22304688 3 10 C3.66 10.33 4.32 10.66 5 11 C4.67 11.99 4.34 12.98 4 14 C0.05536417 10.22687008 0.05536417 10.22687008 -0.09765625 6.8359375 C-0.08605469 6.02382813 -0.07445312 5.21171875 -0.0625 4.375 C-0.05347656 3.55773437 -0.04445313 2.74046875 -0.03515625 1.8984375 C-0.02355469 1.27195312 -0.01195312 0.64546875 0 0 Z " fill="#5778C8" transform="translate(571,519)"/>
<path d="M0 0 C2.84383123 1.2748209 5.13754018 2.45137078 7 5 C6.8125 7.125 6.8125 7.125 6 9 C5.01 9.495 5.01 9.495 4 10 C3.896875 9.05125 3.79375 8.1025 3.6875 7.125 C3.31460705 3.70892499 3.31460705 3.70892499 0 2 C0 1.34 0 0.68 0 0 Z " fill="#777AE3" transform="translate(442,481)"/>
<path d="M0 0 C-0.75 5.75 -0.75 5.75 -3 8 C-3.66 6.02 -4.32 4.04 -5 2 C-2 0 -2 0 0 0 Z " fill="#1F2227" transform="translate(597,756)"/>
<path d="M0 0 C1.98 0.66 3.96 1.32 6 2 C2.49461443 3.96301592 -1.13351728 4.95902388 -5 6 C-3.35 4.02 -1.7 2.04 0 0 Z " fill="#32A2D7" transform="translate(532,318)"/>
<path d="M0 0 C0.99 0 1.98 0 3 0 C3 1.32 3 2.64 3 4 C4.98 4 6.96 4 9 4 C9 4.33 9 4.66 9 5 C6.03 5 3.06 5 0 5 C0 3.35 0 1.7 0 0 Z " fill="#40D8F5" transform="translate(527,802)"/>
<path d="M0 0 C2.97 0 5.94 0 9 0 C9 0.66 9 1.32 9 2 C6.36 2.66 3.72 3.32 1 4 C0.67 2.68 0.34 1.36 0 0 Z " fill="#19272C" transform="translate(399,807)"/>
<path d="M0 0 C2.66666667 2.66666667 5.33333333 5.33333333 8 8 C7.67 8.66 7.34 9.32 7 10 C5.82174642 9.09827532 4.65768423 8.17798498 3.5 7.25 C2.8503125 6.73953125 2.200625 6.2290625 1.53125 5.703125 C0 4 0 4 0 0 Z " fill="#5D6162" transform="translate(317,579)"/>
<path d="M0 0 C0 3.13751221 -0.35179805 4.39757586 -2 7 C-2.99 7.33 -3.98 7.66 -5 8 C-4.64950425 4.75791433 -4.43778819 3.38472296 -1.9375 1.1875 C-1.298125 0.795625 -0.65875 0.40375 0 0 Z " fill="#171C22" transform="translate(578,438)"/>
<path d="M0 0 C4.41889613 1.35021826 6.34345343 3.26115668 9 7 C8.01 7 7.02 7 6 7 C5.34 6.34 4.68 5.68 4 5 C3.29875 4.319375 2.5975 3.63875 1.875 2.9375 C0 1 0 1 0 0 Z " fill="#35D6CD" transform="translate(586,361)"/>
<path d="M0 0 C0.66 0.33 1.32 0.66 2 1 C0.68 3.64 -0.64 6.28 -2 9 C-2.99 7.68 -3.98 6.36 -5 5 C-3.68 4.67 -2.36 4.34 -1 4 C-0.67 2.68 -0.34 1.36 0 0 Z " fill="#1D262D" transform="translate(589,811)"/>
<path d="M0 0 C1.65 0 3.3 0 5 0 C5 1.65 5 3.3 5 5 C3.35 5 1.7 5 0 5 C0.66 4.67 1.32 4.34 2 4 C2 3.01 2 2.02 2 1 C1.34 0.67 0.68 0.34 0 0 Z " fill="#33C8E4" transform="translate(441,802)"/>
<path d="M0 0 C1.98 1.65 3.96 3.3 6 5 C5.67 5.66 5.34 6.32 5 7 C3.0625 6.3125 3.0625 6.3125 1 5 C0.25 2.375 0.25 2.375 0 0 Z " fill="#17171B" transform="translate(582,498)"/>
<path d="M0 0 C0.66 0 1.32 0 2 0 C0.84826645 2.46800047 -0.04783565 4.04783565 -2 6 C-2.99 6 -3.98 6 -5 6 C-4.34 4.68 -3.68 3.36 -3 2 C-2.01 2 -1.02 2 0 2 C0 1.34 0 0.68 0 0 Z " fill="#43B8E5" transform="translate(579,432)"/>
<path d="M0 0 C0.99 0 1.98 0 3 0 C3 0.99 3 1.98 3 3 C0 5.1875 0 5.1875 -3 7 C-2.38722388 4.03824877 -1.74627478 2.61941217 0 0 Z " fill="#3ABBDE" transform="translate(569,415)"/>
<path d="M0 0 C1.98 0.99 1.98 0.99 4 2 C3.67 3.32 3.34 4.64 3 6 C2.01 5.67 1.02 5.34 0 5 C0 3.35 0 1.7 0 0 Z " fill="#171920" transform="translate(414,489)"/>
<path d="M0 0 C0.66 0 1.32 0 2 0 C1.37240135 2.92879371 0.41377341 5.36095629 -1 8 C-1.33 8 -1.66 8 -2 8 C-1.125 1.125 -1.125 1.125 0 0 Z " fill="#15181F" transform="translate(424,459)"/>
<path d="M0 0 C0.99 0.33 1.98 0.66 3 1 C2.67 2.32 2.34 3.64 2 5 C0.68 4.67 -0.64 4.34 -2 4 C-1.34 2.68 -0.68 1.36 0 0 Z " fill="#151D25" transform="translate(465,813)"/>
<path d="M0 0 C1.5 1.3125 1.5 1.3125 3 3 C3 3.99 3 4.98 3 6 C1.68 5.67 0.36 5.34 -1 5 C-0.67 3.35 -0.34 1.7 0 0 Z " fill="#31363A" transform="translate(724,745)"/>
<path d="M0 0 C0.99 0.33 1.98 0.66 3 1 C0.60490662 3.89932357 -1.31245243 4.50168276 -5 5 C-3.35 3.35 -1.7 1.7 0 0 Z " fill="#1C2731" transform="translate(588,456)"/>
<path d="M0 0 C0.99 0.33 1.98 0.66 3 1 C1.37660195 2.70884005 -0.29319053 4.37446717 -2 6 C-2.66 6 -3.32 6 -4 6 C-2.84826645 3.53199953 -1.95216435 1.95216435 0 0 Z " fill="#43BDE9" transform="translate(584,440)"/>
<path d="M0 0 C0 0.33 0 0.66 0 1 C-3.63 1.66 -7.26 2.32 -11 3 C-11 2.34 -11 1.68 -11 1 C-7.2297564 -1.56376565 -4.32597804 -0.83191885 0 0 Z " fill="#1A2F3C" transform="translate(451,356)"/>
</svg>
